<svg viewBox="0 0 512 512" xmlns="http://www.w3.org/2000/svg"><g><path d="M176 384a32 32 0 1 0 0 64 32 32 0 1 0 0-64Z"/><path d="M400 384a32 32 0 1 0 0 64 32 32 0 1 0 0-64Z"/><path d="M456.8 120.78l-.01-.01c-4.56-5.57-11.37-8.8-18.56-8.78H133.88l-6.13-34.78 0 0c-1.35-7.65-8-13.23-15.76-13.23H47.98l-.01 0c-8.84 0-16 7.16-16 16 0 8.83 7.16 16 16 15.99h50.58l45.66 258.78 -.01-.01c1.34 7.64 7.99 13.22 15.75 13.22h256 -.01c8.83 0 16-7.17 16-16 0-8.84-7.17-16-16-16.01H173.36l-5.64-32h241.66l0-.01c11.43-.02 21.28-8.08 23.56-19.29l28.8-144 -.01 0c1.4-7.06-.43-14.38-5-19.93Z"/></g></svg>