<svg viewBox="0 -49.8333 26 26" xmlns="http://www.w3.org/2000/svg"><path d="M20.89-49.29c1.32 0 2.46.47 3.4 1.41s1.41 2.07 1.41 3.4v16.07c0 1.32-.48 2.46-1.42 3.4 -.95.94-2.08 1.41-3.41 1.41h-3.15v-9.97h3.33l.5-3.89h-3.84v-2.48c0-.625.13-1.1.39-1.41 .26-.32.77-.47 1.53-.47l2.04-.02v-3.47c-.71-.11-1.7-.16-2.98-.16 -1.52 0-2.74.44-3.65 1.33 -.91.89-1.37 2.15-1.37 3.78v2.86h-3.35v3.88h3.34v9.96H4.75c-1.33 0-2.47-.48-3.41-1.42 -.95-.95-1.42-2.08-1.42-3.41v-16.08c0-1.33.47-2.47 1.41-3.41 .94-.95 2.07-1.42 3.4-1.42Z" transform="scale(1.01111)"/></svg>