<svg viewBox="0 -49.8333 26 26" xmlns="http://www.w3.org/2000/svg"><path d="M21.42-41.22c-.63.27-1.31.46-2.03.56 .75-.45 1.27-1.1 1.55-1.96 -.73.42-1.48.7-2.25.85 -.69-.74-1.54-1.11-2.57-1.11 -.98 0-1.8.34-2.49 1.02 -.69.68-1.03 1.51-1.03 2.48 0 .32.02.59.08.8 -1.44-.08-2.8-.45-4.06-1.09 -1.27-.65-2.34-1.52-3.22-2.6 -.33.55-.49 1.14-.49 1.77 0 1.27.5 2.24 1.52 2.92 -.53-.02-1.09-.16-1.68-.44v.03c0 .83.27 1.58.83 2.23 .55.65 1.24 1.05 2.05 1.21 -.33.08-.61.13-.86.13 -.15 0-.37-.03-.66-.07 .23.7.65 1.28 1.24 1.74 .59.45 1.27.69 2.03.7 -1.3 1-2.76 1.5-4.37 1.5 -.3 0-.57-.02-.84-.06 1.65 1.04 3.44 1.57 5.39 1.57 1.25 0 2.42-.2 3.51-.6 1.09-.4 2.03-.93 2.81-1.6 .78-.67 1.45-1.43 2.01-2.3 .56-.87.98-1.77 1.25-2.72 .27-.95.41-1.89.41-2.83 0-.21-.01-.36-.02-.46 .7-.51 1.28-1.12 1.75-1.83Zm4.28-3.25v16.07c0 1.32-.48 2.46-1.42 3.4 -.95.94-2.08 1.41-3.41 1.41H4.79c-1.33 0-2.47-.48-3.41-1.42 -.95-.95-1.42-2.08-1.42-3.41V-44.5c0-1.33.47-2.47 1.41-3.41 .94-.95 2.07-1.42 3.4-1.42h16.07c1.32 0 2.46.47 3.4 1.41s1.41 2.07 1.41 3.4Z" transform="scale(1.01111)"/></svg>