<svg viewBox="0 0 48 48" xmlns="http://www.w3.org/2000/svg"><defs><mask id="a"><path fill="#FFF" d="M48 48H0V0h48v48Z"/></mask></defs><path mask="url(#a)" d="M8 26c0 8.8 7.2 16 16 16s16-7.2 16-16h-4c0 6.6-5.4 12-12 12s-12-5.4-12-12 5.4-12 12-12v8l10-10L24 2v8c-8.8 0-16 7.2-16 16Zm13.7 6H20v-6.5l-2 .6v-1.4l3.5-1.3h.2V32Zm8.5-3.5c0 .6-.1 1.2-.2 1.6 -.1.4-.3.8-.6 1.1 -.3.3-.6.5-.9.7 -.3.2-.7.2-1.2.2s-.8-.1-1.2-.2c-.4-.1-.7-.4-.9-.7 -.2-.3-.5-.7-.6-1.1 -.1-.4-.2-1-.2-1.6V27c0-.6.1-1.2.2-1.6 .1-.4.3-.8.6-1.1 .3-.3.6-.5.9-.7 .3-.2.7-.2 1.2-.2s.8.1 1.2.2c.4.1.7.4.9.7 .2.3.5.7.6 1.1 .1.4.2 1 .2 1.6v1.5Zm-1.7-1.7c0-.4 0-.7-.1-1 -.1-.3-.1-.5-.2-.6 -.1-.1-.2-.3-.4-.3s-.3-.1-.5-.1 -.4 0-.5.1c-.1.1-.3.2-.4.3 -.1.1-.2.4-.2.6 0 .2-.1.6-.1 1v1.9c0 .4 0 .7.1 1 .1.3.1.5.2.6 .1.1.2.3.4.3s.3.1.5.1 .4 0 .5-.1c.1-.1.3-.2.4-.3 .1-.1.2-.4.2-.6 0-.2.1-.6.1-1v-1.9Z"/></svg>