<svg viewBox="0 0 24 24" xmlns="http://www.w3.org/2000/svg"><defs><mask id="a"><path fill="#FFF" d="M0 0h24v24H0V0Z"/></mask></defs><path mask="url(#a)" d="M12 5V1L7 6l5 5V7c3.3 0 6 2.7 6 6s-2.7 6-6 6 -6-2.7-6-6H4c0 4.4 3.6 8 8 8s8-3.6 8-8 -3.6-8-8-8Zm-1.1 11H10v-3.3L9 13v-.7l1.8-.6h.1V16Zm4.3-1.8c0 .3 0 .6-.1.8l-.3.6s-.3.3-.5.3 -.4.1-.6.1c-.2 0-.4 0-.6-.1 -.2-.1-.3-.2-.5-.3 -.2-.1-.2-.3-.3-.6 -.1-.3-.1-.5-.1-.8v-.7c0-.3 0-.6.1-.8l.3-.6s.3-.3.5-.3 .4-.1.6-.1c.2 0 .4 0 .6.1 .2.1.3.2.5.3 .2.1.2.3.3.6 .1.3.1.5.1.8v.7Zm-.9-.8v-.5s-.1-.2-.1-.3c0-.1-.1-.1-.2-.2s-.2-.1-.3-.1c-.1 0-.2 0-.3.1l-.2.2s-.1.2-.1.3v2s.1.2.1.3c0 .1.1.1.2.2s.2.1.3.1c.1 0 .2 0 .3-.1l.2-.2s.1-.2.1-.3v-1.5Z"/></svg>