<?xml version="1.0" encoding="iso-8859-1"?>
<!-- Generator: Adobe Illustrator 19.0.0, SVG Export Plug-In . SVG Version: 6.00 Build 0)  -->
<svg version="1.1" id="Layer_1" xmlns="http://www.w3.org/2000/svg" xmlns:xlink="http://www.w3.org/1999/xlink" x="0px" y="0px"
	 viewBox="0 0 511.997 511.997" style="enable-background:new 0 0 511.997 511.997;" xml:space="preserve">
<g>
	<polygon style="fill:#F95428;" points="499.206,134.169 499.206,233.928 476.264,233.928 35.731,233.928 12.789,233.928 
		12.789,134.169 	"/>
	<rect x="35.731" y="233.929" style="fill:#F95428;" width="440.533" height="244.647"/>
</g>
<polygon style="fill:#E54728;" points="476.264,233.928 476.264,268.454 455.487,268.454 56.509,268.454 35.731,268.454 
	35.731,233.928 "/>
<path style="fill:#666666;" d="M289.368,117.366v361.209h-66.74V117.366c0-17.66,14.31-31.97,31.97-31.97h2.801
	C275.058,85.396,289.368,99.705,289.368,117.366z"/>
<rect x="222.626" y="233.929" style="fill:#4D4D4D;" width="66.74" height="34.528"/>
<g>
	<path style="fill:#F9A493;" d="M458.765,209.378c-7.062,0-12.788-5.725-12.788-12.788v-24.935c0-7.063,5.726-12.788,12.788-12.788
		c7.062,0,12.788,5.725,12.788,12.788v24.935C471.553,203.652,465.828,209.378,458.765,209.378z"/>
	<path style="fill:#F9A493;" d="M437.666,451.059c-7.062,0-12.788-5.725-12.788-12.788V298.25c0-7.063,5.726-12.788,12.788-12.788
		s12.788,5.725,12.788,12.788v140.021C450.454,445.334,444.729,451.059,437.666,451.059z"/>
</g>
<path style="fill:#333333;" d="M499.212,121.376H364.314c10.881-7.56,20.085-16.659,27.548-27.291
	c16.78-23.905,7.609-50.047-10.122-63.517c-17.709-13.45-45.31-15.27-63.815,7.276c-13.081,15.939-22.13,33.134-28.347,48.454
	c-8.145-8.431-19.553-13.691-32.173-13.691h-2.807c-12.62,0-24.03,5.258-32.173,13.691c-6.218-15.319-15.266-32.515-28.347-48.454
	c-18.507-22.545-46.108-20.727-63.815-7.276c-17.731,13.47-26.902,39.612-10.122,63.515c7.463,10.632,16.667,19.731,27.548,27.291
	H12.788C5.726,121.375,0,127.1,0,134.163v99.767c0,7.063,5.726,12.788,12.788,12.788h10.157V478.58
	c0,7.063,5.726,12.788,12.788,12.788h186.892h66.747h186.892c7.062,0,12.788-5.725,12.788-12.788V246.717h10.156
	c7.062,0,12.788-5.725,12.788-12.788v-99.767C512,127.101,506.274,121.376,499.212,121.376z M486.424,221.141H302.162v-74.191
	h184.262V221.141z M235.415,146.952h41.171v74.191h-41.171V146.952z M337.696,54.07c4.716-5.746,10.117-7.909,15.259-7.909
	c4.963,0,9.684,2.017,13.314,4.774c7.412,5.631,13.081,16.461,4.661,28.456c-13.704,19.521-35.59,32.63-65.208,39.094
	C310.135,101.987,319.381,76.386,337.696,54.07z M254.597,98.184h2.807c10.577,0,19.182,8.605,19.182,19.182v4.009h-41.171v-4.009
	C235.415,106.789,244.019,98.184,254.597,98.184z M145.733,50.935c3.629-2.757,8.349-4.774,13.314-4.774
	c5.142,0,10.544,2.164,15.259,7.909c18.215,22.194,27.488,47.859,31.937,64.405c-29.598-6.468-51.472-19.573-65.169-39.086
	C132.652,67.395,138.321,56.565,145.733,50.935z M25.576,146.952h184.263v74.191H25.576V146.952z M48.521,246.717h161.317v219.075
	H48.521V246.717z M235.415,465.792V246.717h41.171v219.075L235.415,465.792L235.415,465.792z M463.48,465.792H302.162V246.717
	h161.316v219.075H463.48z"/>
<g>
</g>
<g>
</g>
<g>
</g>
<g>
</g>
<g>
</g>
<g>
</g>
<g>
</g>
<g>
</g>
<g>
</g>
<g>
</g>
<g>
</g>
<g>
</g>
<g>
</g>
<g>
</g>
<g>
</g>
</svg>
