<svg viewBox="0 0 24 24" xmlns="http://www.w3.org/2000/svg"><g><path d="M20.947 8.3c-.02-.76-.16-1.508-.42-2.22 -.47-1.21-1.43-2.165-2.64-2.633 -.7-.27-1.44-.41-2.186-.42 -.97-.05-1.27-.06-3.71-.06 -2.442 0-2.76 0-3.71.05 -.75.01-1.49.15-2.19.42 -1.21.46-2.17 1.424-2.64 2.63 -.27.69-.41 1.43-.42 2.18 -.05.96-.06 1.26-.06 3.71 0 2.442 0 2.75.05 3.71 .01.74.15 1.48.41 2.18 .46 1.2 1.424 2.16 2.634 2.63 .69.27 1.43.42 2.18.45 .96.04 1.26.05 3.71.05 2.442 0 2.75 0 3.71-.06 .74-.02 1.48-.16 2.186-.42 1.2-.47 2.16-1.43 2.63-2.64 .26-.7.4-1.44.41-2.19 .04-.97.05-1.27.05-3.71 -.01-2.45-.01-2.76-.06-3.71Zm-8.953 8.29c-2.56 0-4.63-2.07-4.63-4.63s2.06-4.63 4.62-4.63c2.55 0 4.62 2.06 4.62 4.62 0 2.55-2.08 4.62-4.63 4.62Zm4.8-8.339c-.6 0-1.08-.49-1.08-1.08 0-.6.48-1.08 1.07-1.08 .59 0 1.07.48 1.07 1.07 0 .59-.49 1.07-1.08 1.07Z"/><path d="M11.99 8.97a3 3 0 1 0 0 6 3 3 0 1 0 0-6.01Z"/></g></svg>