<?xml version="1.0" encoding="utf-8"?>
<!-- Generator: Adobe Illustrator 25.0.1, SVG Export Plug-In . SVG Version: 6.00 Build 0)  -->
<svg version="1.1" id="Layer_1" xmlns="http://www.w3.org/2000/svg" xmlns:xlink="http://www.w3.org/1999/xlink" x="0px" y="0px"
	 viewBox="0 0 1464 1080" style="enable-background:new 0 0 1464 1080;" xml:space="preserve">
<style type="text/css">
	.st0{fill:#8C9DFE;}
	.st1{fill:#FEFEFE;}
</style>
<g>
	<path class="st0" d="M227.8,800.2c10.5,11.3,20.3,23.4,31.7,33.7c19.9,18.1,40.3,35.7,61.4,52.4c29.2,23.1,61.1,42,94.4,58.8
		c25.5,12.9,51.6,24.1,78.6,33.6c1,0.4,2,0.9,3.6,1.6c-5.9,8-11.7,15.7-17.5,23.5c-10.4,13.9-20.9,27.7-31.2,41.7
		c-2.2,3-4.5,4.2-8.3,4.1c-26-0.6-51.5-4.7-76.9-9.4c-44.9-8.2-88.5-21.1-130.7-38.5c-53.4-22.1-102.8-50.9-146.4-88.9
		c-17.7-15.5-33.8-32.8-51-48.9c-5.6-5.3-4.6-11.5-4.2-17.7c0.6-10.1,1.7-20.2,2.7-30.3c1.9-19.6,3.6-39.1,5.7-58.7
		c1.9-18,3.6-36,6.1-53.8c2.8-20.4,5.7-40.8,9.6-61.1C63,601.9,70.7,561.3,80,521.1c18.3-79.4,43.2-156.8,74.7-231.9
		c18.4-44,38.9-86.9,64.2-127.5c4.6-7.5,11.9-11.4,18.6-16.1c44-30.9,91.1-56,141.1-75.9c37.6-15,76.3-26.6,116.1-34
		c14.2-2.6,28.6-4.2,42.9-6.1c1.4-0.2,3.8,0.6,4.3,1.7c5,9.4,9.6,18.9,14.8,29.3c-114.8,24.4-213.9,77.7-299.5,157.7
		c2.2-0.9,3.9-1.5,5.5-2.3c39.2-18.5,78-37.8,117.6-55.3c44-19.4,89.8-34.2,136.9-44.6c26-5.7,52.5-9.8,78.8-14
		c14.7-2.3,29.6-3.5,44.4-4.8c14.4-1.3,28.8-2.1,43.2-2.9c14.3-0.8,28.6-1.5,42.9-1.7c15.9-0.1,31.9,0.2,47.8,0.8
		c14.6,0.6,29.2,1.4,43.7,2.8c16.7,1.5,33.3,3.8,50,5.6c56.1,6.2,110.4,20,163.6,38.2c38.8,13.3,76.4,29.4,113.2,47.3
		c18.9,9.2,37.7,18.6,56.6,27.9c1.4,0.7,2.9,1.1,4.4,1.7c0.3,0.3,0.7,0.7,1,1c-0.2-0.5-0.3-0.9-0.5-1.4
		c-11.7-10.1-23.2-20.4-35-30.3c-24.3-20.5-50.1-38.8-77.5-54.9c-30.7-18-62.8-33.2-96.6-44.6c-28.3-9.5-57.2-17.4-85.8-26.1
		c-0.7-0.2-1.5-0.5-2.6-0.9c0.6-1.4,1-2.7,1.6-3.9c3.3-6.7,7-13.3,9.9-20.2c2.3-5.2,4.7-7.4,11-6c8.6,2,17.6,1.8,26.4,3.1
		c27,3.8,53.3,10.3,79.3,18.5c65.6,20.7,126.6,51.1,183.7,89.3c3.7,2.5,7.1,5.4,11.1,7.5c12.3,6.6,17.8,18.7,24.3,29.9
		c18.9,32.4,35.5,66,49.7,100.6c13.9,34.2,27.5,68.6,39.6,103.4c18.1,52,32.7,105.1,44.4,159c6.4,29.6,12.3,59.4,18,89.2
		c3.4,17.7,6.1,35.6,8.6,53.5c2.7,19,4.8,38,7,57.1c2,17,4,33.9,5.6,50.9c1.3,13.7,1.9,27.6,3,41.3c0.5,6.5,1.5,12.9,1.7,19.3
		c0.1,2.7-0.6,6.2-2.3,8.2c-17.2,20.4-36.5,38.7-57.1,55.7c-31.6,26.1-65.7,48.2-102.3,66.6c-40.2,20.3-82.3,35.6-125.9,46.9
		c-28.3,7.4-57,12.9-86.1,16.2c-12.3,1.4-24.6,2.1-36.9,2.8c-1.7,0.1-4.2-0.8-5.2-2.2c-16.6-21.8-33-43.8-49.4-65.7
		c-0.2-0.2-0.2-0.6-0.6-1.5c6.9-2.6,13.8-5.2,20.7-7.9c54.3-20.8,105.2-48.1,151.7-83c20.3-15.3,39.5-32.2,58.4-49.2
		c13-11.7,24.6-24.9,36.8-37.5c0.6-0.7,1-1.6,1.6-2.4c0.5-0.5,1-0.9,1.6-1.4c0.3-0.3,0.6-0.7,0.9-1c0.1-0.1,0.3-0.1,0.3-0.2
		c0.1,0,0-0.2,0-0.2c-0.1,0.2-0.2,0.3-0.3,0.5c-0.3,0.3-0.6,0.6-1,0.9c-0.7,0.3-1.4,0.5-2.1,0.8c-12.3,8.5-24.5,17.2-37,25.4
		c-59.4,39.3-123.3,69.1-191.2,90.2c-34.7,10.8-69.9,19.3-105.8,25c-25.8,4.1-51.9,6.9-77.9,9.8c-14.2,1.6-28.5,2.5-42.7,2.8
		c-31,0.7-62.1,1.5-93.2,0.8c-22.2-0.5-44.3-3.2-66.4-5.4c-19.1-1.9-38.2-3.8-57.1-7c-20-3.4-39.9-8-59.7-12.6
		c-55.7-13.1-109.2-32.3-160.5-57.6c-40.1-19.8-78.1-43.1-114.1-69.6c-0.9-0.6-1.9-1.1-2.8-1.7c-0.7-0.3-1.4-0.5-2.1-0.8
		c-0.3-0.3-0.6-0.6-1-0.9c-0.1-0.2-0.2-0.3-0.3-0.5c0,0.1,0,0.2,0,0.2c0.1,0.1,0.2,0.1,0.3,0.2c0.3,0.3,0.6,0.7,0.9,1
		C226.8,799.3,227.3,799.8,227.8,800.2z M1051.3,599.2c-0.5-4.5-0.7-13.4-2.4-22.1c-5.6-29.7-18.9-55.3-41.9-75.3
		c-23.5-20.5-50.8-28.7-81.8-24.5c-22.9,3.1-42.1,13.3-58.1,29.5c-31.1,31.7-42.9,70.3-37.9,114c3.9,33.6,17.9,62.7,44,84.8
		c23,19.5,49.5,28.7,79.9,24.3c26.4-3.8,48.1-16.4,65.3-36.3C1040.9,667.8,1051,637.4,1051.3,599.2z M413.6,605.6
		c0.3,5.1,0.1,12.7,1.4,20c5.9,31.7,19,59.7,44.4,80.6c25.7,21.1,54.8,29.6,87.6,22.1c27.7-6.3,48.9-22.4,65.1-45.3
		c20.7-29.3,27.2-62.4,23.3-97.4c-3.4-30.8-16-57.8-38.5-79.7c-23.3-22.7-51.5-32.7-83.6-29.3c-28.4,3-51.4,17.2-69.3,39.2
		C423.4,541.1,413.7,570.5,413.6,605.6z"/>
	<path class="st1" d="M1206.2,216.9c0.2,0.5,0.3,0.9,0.5,1.4c-0.3-0.3-0.7-0.7-1-1C1205.9,217.2,1206.1,217.1,1206.2,216.9z"/>
	<path class="st1" d="M226.2,798.9c0.7,0.3,1.4,0.5,2.1,0.8c-0.2,0.2-0.3,0.4-0.5,0.6C227.3,799.8,226.8,799.3,226.2,798.9
		L226.2,798.9z"/>
	<path class="st1" d="M1236.6,799.6c0.7-0.3,1.4-0.5,2.1-0.8c0,0,0,0,0,0c-0.5,0.5-1,0.9-1.6,1.4
		C1236.9,800,1236.8,799.8,1236.6,799.6z"/>
	<path class="st1" d="M225.3,797.8c-0.1-0.1-0.3-0.1-0.3-0.2c-0.1,0,0-0.2,0-0.2C225.1,797.6,225.2,797.7,225.3,797.8
		C225.3,797.9,225.3,797.8,225.3,797.8z"/>
	<path class="st1" d="M1239.6,797.9c0.1-0.2,0.2-0.3,0.3-0.5c0,0.1,0,0.2,0,0.2C1239.8,797.8,1239.7,797.8,1239.6,797.9
		L1239.6,797.9z"/>
	<path class="st1" d="M226.3,798.8c-0.3-0.3-0.6-0.7-0.9-1c0,0-0.1,0.1-0.1,0.1C225.6,798.2,225.9,798.5,226.3,798.8
		C226.2,798.9,226.3,798.8,226.3,798.8z"/>
	<path class="st1" d="M1239.6,797.8c-0.3,0.3-0.6,0.7-0.9,1c0,0,0,0,0,0C1239,798.5,1239.3,798.2,1239.6,797.8
		C1239.6,797.9,1239.6,797.8,1239.6,797.8z"/>
</g>
</svg>
