<svg height="30" viewBox="0 0 138 30" width="138" xmlns="http://www.w3.org/2000/svg" xmlns:xlink="http://www.w3.org/1999/xlink"><mask id="a" fill="#fff"><path d="m.505859 0h99v16h-99z" fill="#fff" fill-rule="evenodd"/></mask><g fill="#fff" fill-rule="evenodd"><g transform="translate(37.5 9)"><path d="m47.1805 1.09064c-2.2747.57315-3.3409 2.35678-2.6944 4.50716.277.92142 1.1291 1.85097 2.334 2.54613 2.1715 1.25278 2.8109 1.76013 3.1823 2.52447.3098.6377.3367.8509.1804 1.4289-.3666 1.3568-1.324 2.1051-2.6937 2.1051-1.398 0-2.3797-.7842-2.5988-2.0759-.0879-.5195-.1964-.6854-.4473-.6854-.2998 0-.3312.1374-.3312 1.4532v1.4529l.9093.3089c1.4199.4822 3.4395.4246 4.6446-.1325 2.3476-1.0854 3.2474-3.2397 2.1937-5.25275-.394-.75297-1.383-1.59341-3.0774-2.61545-1.7807-1.07432-2.5743-1.85577-2.6907-2.64999-.1788-1.22051.919-2.23064 2.4194-2.22632 1.1751.00328 1.6794.28148 2.096 1.15613.2608.54761.4475.72862.7563.73345.3415.00518.3925-.0585.3053-.38209-.0573-.21348-.1054-.74882-.1066-1.1896-.0018-.55968-.0827-.83203-.2685-.90296-.5061-.19364-3.4603-.267847-4.1127-.10338zm-45.674641.51327c0 .24835.115522.34516.411858.34516.836183 0 .881043.24129.973703 5.24652.08088 4.37271.11084 4.72191.46035 5.36731.50071.9245 1.17981 1.5397 2.22417 2.0152.71547.3257 1.16716.3947 2.59793.397813 1.55217.002787 1.835-.047313 2.72436-.482513.54577-.267 1.22557-.7675 1.51057-1.1121.9885-1.1948 1.0931-1.7722 1.2051-6.6496.1079-4.69666.1226-4.77297.9249-4.78005.1867-.00155.3031-.13512.3031-.34774 0-.32601-.1155-.34517-2.0784-.34517-1.94009 0-2.0783.02226-2.0783.33429 0 .25024.14028.34775.5589.38831.9198.08888.9945.44237.9973 4.72552.0029 4.34234-.1454 5.17774-1.0752 6.05704-.86463.8179-1.55273 1.0934-2.73081 1.0934-1.69211 0-2.89132-.7877-3.28447-2.1573-.13232-.4606-.18099-2.15454-.14635-5.09121l.05179-4.40085.60618-.19483c.3334-.10718.6313-.32067.66212-.47462.04954-.24731-.22636-.27975-2.38143-.27975-2.32185 0-2.437371.0164-2.437371.34517zm16.107141 0c0 .26716.1155.34516.5114.34516.882 0 1.3787.33897 1.578 1.07676.1135.41955.1623 2.42321.1291 5.28687-.0595 5.1131-.1296 5.4476-1.1871 5.6583-.3487.0696-.5118.2052-.5118.4256 0 .301.1694.3235 2.4247.3235 2.2157 0 2.4247-.0265 2.4247-.3094 0-.2202-.2218-.3684-.7703-.5146-.6812-.1816-.7914-.2806-.9517-.8555-.2056-.7378-.2543-8.51071-.0532-8.48828.0713.00794.7432.72637 1.4929 1.59636.7496.86999 2.8006 3.15445 4.5577 5.07662 2.7501 3.0085 3.2645 3.4948 3.6966 3.4948h.502l.0497-6.11813c.0351-4.34407.1077-6.17604.2499-6.31773.1103-.10977.461-.25266.7794-.31755.3379-.06886.579-.22299.579-.36986 0-.20606-.4318-.26043-2.3815-.29978-2.2929-.04625-2.3814-.03504-2.3814.30202 0 .25611.1134.35.4233.35.2329 0 .642.18726.9093.41628l.4859.41627.0546 4.15715c.031 2.34712-.0123 4.15723-.0991 4.15723-.0845 0-.6133-.5242-1.1751-1.16501-.5617-.6408-2.1613-2.4075-3.5547-3.92623-1.3933-1.51872-2.9155-3.20158-3.3825-3.73952l-.8493-.97819-1.7753-.01415c-1.6645-.01329-1.7752.00742-1.7752.33101zm18.1855 0c0 .26319.1155.34516.4865.34516.2676 0 .6377.1101.8227.24472.3172.23108.3392.52899.3903 5.30693.064 5.96618.0115 6.30058-1.0133 6.46388-.5161.0823-.6862.1895-.6862.4325 0 .3013.1746.323 2.5979.323 2.4824 0 2.5979-.0153 2.5979-.3451 0-.2456-.1155-.3452-.3999-.3452-.2199 0-.5511-.1101-.7361-.2447-.3185-.2319-.3387-.5303-.3864-5.68828-.0488-5.28378-.04-5.45378.3031-5.79566.1944-.19364.5482-.35209.7863-.35209.3175 0 .433-.09198.433-.34516 0-.32981-.1155-.34517-2.5979-.34517s-2.5979.01536-2.5979.34517zm18.1352 0c.0561.21383.2363.34516.4732.34516.2104 0 .553.1807.7614.40178.2116.22436 1.3957 3.06144 2.6833 6.42869l2.3047 6.02686.6043.0517.6042.0516 1.6191-4.2799c.8905-2.35384 1.7125-4.4661 1.8268-4.69391.1959-.39004.2396-.33064.76 1.03552.3036.79733 1.1121 2.90576 1.7964 4.68539l1.244 3.2359h.5482c.3017 0 .588-.1031.6367-.2293.0485-.126.8443-2.1647 1.7683-4.5303.9242-2.36543 1.9477-4.98608 2.2747-5.82345.7448-1.90686.8939-2.14226 1.4876-2.3485.264-.09164.4799-.28716.4799-.43454 0-.22712-.3154-.26787-2.0783-.26787-1.9628 0-2.0784.01916-2.0784.34517 0 .25007.1156.34516.4188.34516.6732 0 .9668.18225.9668.60042 0 .34896-3.2988 9.30251-3.5022 9.50491-.1248.1245-3.1036-8.19275-3.2113-8.96661-.1047-.75177.2164-1.13872.9446-1.13872.2843 0 .3999-.09958.3999-.34516 0-.33032-.1156-.34517-2.6846-.34517s-2.6845.01485-2.6845.34517c0 .19674.1155.34516.2685.34516.5407 0 1.2574.52051 1.4416 1.04723.2645.75574.0622 1.52198-1.495 5.66568l-1.3228 3.52022-.2849-.6726c-.1568-.3698-.9724-2.55231-1.8122-4.84973-1.6502-4.51338-1.6746-4.7108-.5843-4.7108.3829 0 .4984-.0799.4984-.34516 0-.32981-.1155-.34517-2.5816-.34517-2.4965 0-2.5787.0114-2.4913.34517zm35.0748.11914s-.0002.23561.0288.30117c.029.06555.2153.09018.2153.09018.1156.03102.2256.05826.3295.08397.5234.12963.8911.22068 1.038.56432.0993.23214.1055 1.03932.1067 5.36654.0013 4.56287.0004 5.12207-.1217 5.42357-.1514.3739-.4412.5725-1.1098.7602 0 0-.2958.0823-.3754.1559-.0796.0735-.0946.2379-.0946.2379s-.0063.1526.0619.2258.2501.0383.2501.0383l1.7332.0046 2.8747.0232s.1175.0156.1784-.0622c.0609-.0777.0454-.2301.0454-.2301s0-.163-.0758-.2364c-.0757-.0734-.3694-.1423-.3694-.1423-.6492-.1597-.9823-.368-1.1296-.7061-.1095-.2512-.1212-.9296-.1377-2.3424v-2.07133c.0726.04093.1389.08734.209.13637.3313.23186.7463.5222 2.2963.56706 1.8779.05435 3.0075-.78123 3.6794-1.75173.6718-.97049.9324-2.4952.4395-4.11943-.4929-1.62424-1.9392-2.60716-3.9725-2.70877-1.0599-.05296-2.6019-.00066-3.4637.03844l-.2414.01083c-.783.03416-1.7213.10902-2.1888.15349l-.0014.00013c-.1272.0121-.1398.0133-.1754.05848-.0357.04534-.029.13031-.029.13031zm7.6312 6.36255c.7554-.7101.7679-1.82089.7679-2.5305-.0741-1.11267-.5225-3.2525-3.0621-3.2525-.5937-.0305-1.8086.07197-1.8422.89562-.0368.14549-.0532 1.16325-.0438 2.72524l.015 2.49299.2585.13615.0139.00737c.1403.07405.3223.17017.6405.23247 1.0096.19772 2.4969.00327 3.2523-.70684zm-15.8899-6.60916c.1881-.07127.3121-.11888.3121-.11888s.2811-.11554.3719 0c.028.03559.1299.29867.3826.95074.0495.12792.1049.27081.1667.42989.3765.96999.9174 2.3623 1.2021 3.09405.2846.73174.8475 2.17975 1.251 3.21781.4034 1.03805.9213 2.36975 1.1507 2.95925.2296.5896.5228 1.2026.6048 1.3144.0403.0549.0815.1232.1266.198.1772.2936.4149.6876.8924.7647 0 0 .3738.0618.4292.1204.0553.0586.0679.1651.0679.1651v.2s-.0064.0511-.0371.0946c-.0308.0434-.1438.0313-.1438.0313l-2.8823.0002-2.0505.0148s-.0716.0087-.1138-.0262c-.0423-.0349-.0642-.1232-.0642-.1232v-.1506s-.0177-.1133.0642-.2119c.0819-.0985.4112-.1099.4112-.1099.6207-.0539.8671-.5827.9939-.8549.0095-.0203.0183-.0392.0265-.0564.1352-.2814.0864-.4647-.5243-1.969-.403-.9928-.5403-1.2716-.6383-1.2964-.0687-.0174-1.1414-.0238-2.3839-.0143l-2.2588.0172-.1351.3713c-.3906 1.074-.7375 2.1409-.7898 2.4293-.1065.5869.042 1.2396.9051 1.3531 0 0 .32.0441.4054.1085.0853.0644.1153.2294.1153.2294v.1521s-.0163.0724-.0751.1211c-.0587.0488-.2112.031-.2112.031h-2.1559l-2.0858.0237s-.0891-.002-.1549-.0369-.0763-.1049-.0763-.1049v-.1446s-.0113-.0938.1048-.2085c.1162-.1148.4297-.1455.4297-.1455.5702-.0918.8931-.6986 1.079-1.0479.0137-.0258.0267-.0502.0389-.0728.0737-.136.4059-.9296.7383-1.7634.3324-.8339.7055-1.76676.829-2.07308.4201-1.04152.8194-2.03935 1.4238-3.55816.3318-.83385.823-2.06467 1.0916-2.73516l.4883-1.21909zm-.1779 2.96331c.1046.26367.2648.66046.3558.88169.0911.22122.346.84777.5664 1.39232s.4912 1.20724.6018 1.47265c.1106.26547.2012.49517.2012.51052 0 .01541-.8302.02797-1.8448.02797-1.1648 0-1.8448-.02235-1.8448-.06065 0-.03335.039-.16558.0867-.29392.0758-.20409.4544-1.28745 1.2904-3.69332.129-.37148.2488-.69914.266-.7281.0588-.09907.1311.01132.3213.49084z"/><path d="m61.1896 12.1822-.0461.0195.0488.1152.0441-.1171zm-16.6556-6.5988c-.3199-1.06393-.215-2.03254.2467-2.80498.462-.77275 1.2848-1.35526 2.412-1.63929l-.0244-.09697c-1.1475.28912-1.9952.885-2.4734 1.68495-.4784.80024-.5833 1.79864-.2567 2.88509zm2.3111 2.51723c-1.1988-.69162-2.0392-1.61251-2.3111-2.51722l-.0958.02878c.282.93813 1.1458 1.87634 2.3569 2.57505zm3.2022 2.54597c-.3791-.78046-1.0333-1.2947-3.2022-2.54597l-.05.08661c2.1741 1.25428 2.7988 1.75475 3.1623 2.50306zm.1838 1.4637c.0786-.2906.1131-.4961.0859-.7113-.027-.2141-.1146-.4333-.2697-.7524l-.0899.0437c.1548.3185.2356.5248.2604.7212.0246.1953-.0056.3854-.0832.6727zm-2.742 2.1421c.6942 0 1.2873-.1898 1.7538-.5543.4664-.3646.8026-.9009.9882-1.5878l-.0965-.0261c-.1811.67-.5069 1.1862-.9533 1.5351-.4463.3487-1.0167.5331-1.6922.5331zm-2.648-2.1176c.1113.6568.4173 1.1872.8753 1.5531.4579.3657 1.0643.5645 1.7727.5645v-.1c-.6896 0-1.273-.1933-1.7103-.5426-.437-.3491-.7315-.8567-.8392-1.4917zm-.3981-.6437c.0573 0 .1028.0095.1408.0287.0377.019.0713.0494.1021.0965.0633.0969.1112.2589.1551.5185l.0986-.0167c-.044-.2598-.0943-.4405-.17-.5565-.0386-.0592-.0847-.1028-.1407-.1311-.0556-.0281-.1177-.0394-.1859-.0394zm-.2812 1.4032c0-.6607.0082-1.017.0519-1.2089.0217-.095.0499-.1392.0808-.1621.0314-.0233.0754-.0322.1485-.0322v-.1c-.0769 0-.1492.0083-.208.0519-.0593.0439-.0951.1163-.1188.2202-.0468.2057-.0544.576-.0544 1.2311zm0 1.4529v-1.4529h-.1v1.4529zm.8754.2616-.9093-.3089-.0321.0947.9092.3089zm4.6075-.1306c-.5945.2748-1.3935.4278-2.2222.4514-.8284.0236-1.6821-.082-2.3853-.3208l-.0322.0947c.7167.2433 1.5827.35 2.4204.3261.8373-.0239 1.6507-.1784 2.2613-.4606zm2.1704-5.18416c.5203.99406.5575 2.02036.1768 2.93176-.381.9122-1.1824 1.7139-2.3472 2.2524l.042.0908c1.1828-.5469 2.0051-1.3651 2.3975-2.3047.3927-.9403.3529-1.9977-.1805-3.01663zm-3.0589-2.59582c1.6944 1.02206 2.672 1.85641 3.0589 2.59582l.0886-.04637c-.4011-.76655-1.4015-1.61308-3.0958-2.63508zm-2.7144-2.68557c.0604.41181.2957.81512.7356 1.24834.4397.43302 1.0872.89935 1.9788 1.43723l.0517-.08563c-.8892-.53645-1.5289-.99801-1.9603-1.42285-.4312-.42464-.6508-.80917-.7069-1.19158zm2.469-2.2835739c-1.5189-.0043561-2.6537 1.0220139-2.469 2.2835739l.099-.01449c-.1728-1.17945.8878-2.17334 2.3697-2.16907zm2.141 1.1846439c-.2108-.44253-.4469-.7409-.7845-.92711-.3361-.1854-.7662-.25588-1.3565-.25752l-.0003.1c.5848.00163.9945.0719 1.3085.24508.3125.17238.5367.45044.7425.88255zm.712.70496c-.1424-.00223-.2539-.04412-.3622-.14909-.1111-.10773-.2198-.28297-.3498-.55587l-.0903.043c.1309.27471.2459.46378.3705.58466.1275.12364.2638.17468.4302.17728zm.2563-.3191c.0215.08016.0335.14041.0354.18603.0018.04541-.0065.06951-.0181.08409-.0118.01477-.0342.02873-.0802.03793-.046.00921-.1088.01233-.1934.01105l-.0016.09998c.0862.00131.1578-.00159.2147-.01298s.1058-.0326.1386-.07355c.0329-.04114.0423-.09331.0399-.15068-.0024-.05717-.0168-.12623-.0388-.20787zm-.1084-1.20246c.0012.44174.0493.98243.1084 1.20243l.0965-.02593c-.0555-.20697-.1037-.73696-.1049-1.17677zm-.2363-.85639c.0723.02762.1317.09624.1731.23574.0416.13991.0623.34214.0632.62067l.1-.00031c-.0009-.28116-.0216-.49494-.0673-.64886-.0459-.15432-.1199-.25735-.2334-.30066zm-4.0827-.1016c.1573-.03964.4591-.06582.8362-.07898.3754-.0131.8206-.0132 1.2616-.00212.4409.01108.8769.03332 1.2339.06483.1786.01575.3368.03377.4659.05379.13.02017.227.04188.285.06407l.0358-.0934c-.0686-.02622-.1746-.04918-.3055-.06949-.132-.02047-.2926-.03872-.4724-.05459-.3596-.031732-.7978-.054065-1.2402-.065182-.4424-.011118-.8897-.011036-1.2676.002153-.3761.013129-.6881.039352-.8571.081949zm-45.274983.75994c-.145097 0-.232962-.02421-.284939-.06777-.049616-.04158-.076919-.10999-.076919-.22739h-.1c0 .13094.030459.23512.112687.30403.079868.06694.197932.09113.349171.09113zm1.023693 5.29559c-.04628-2.49998-.08057-3.81724-.20886-4.50842-.06403-.34501-.15347-.5472-.2913-.65996-.13846-.11328-.3152-.12721-.523533-.12721v.1c.209753 0 .352193.01623.460213.10461.10866.08889.19302.25985.2563.60081.12635.68077.16082 1.98677.2072 4.49203zm.45433 5.34444c-.08642-.1596-.15196-.2987-.20379-.4856-.05205-.1876-.09075-.4249-.12127-.7808-.06111-.7125-.08881-1.89083-.12927-4.07804l-.09998.00185c.04042 2.18551.06814 3.36809.12961 4.08479.03077.3586.07015.6029.12455.799.0546.1968.12387.3433.21221.5064zm2.20092 1.9935c-1.03542-.4714-1.70588-1.0794-2.20092-1.9935l-.08793.0476c.50637.935 1.19411 1.5574 2.24741 2.0369zm2.57731.3932c-.71529-.0015-1.18259-.0195-1.55974-.0773-.3756-.0574-.66292-.1545-1.01757-.3159l-.04143.091c.36081.1643.65707.2646 1.04387.3238.38526.0589.85919.0769 1.57466.0784zm2.70228-.4773c-.44349.217-.73149.3359-1.10036.4012-.37082.0656-.82514.0775-1.60193.0761l-.00019.1c.77538.0014 1.23857-.0102 1.61955-.0777.38292-.0678.68102-.1916 1.12689-.4098zm1.49405-1.0991c-.2792.3376-.9525.8342-1.49405 1.0991l.04395.0898c.55-.2691 1.2362-.7735 1.5272-1.1252zm1.1936-6.61885c-.056 2.44017-.1102 3.79935-.2731 4.69795-.0812.4481-.1892.7799-.3371 1.0731-.148.2934-.3372.5501-.5834.8478l.0771.0637c.2479-.2997.4426-.5632.5956-.8665.1532-.3036.2637-.645.3462-1.1002.1646-.9081.2187-2.27637.2747-4.71355zm.9744-4.8289c-.1969.00174-.3652.00642-.4961.09851-.1327.09339-.2161.26755-.2753.57343-.1185.61239-.1491 1.81168-.203 4.15696l.1.0023c.054-2.35137.0848-3.53857.2012-4.14027.0582-.30117.1356-.44095.2347-.51063.1009-.07098.2352-.0785.4394-.0803zm.2536-.29774c0 .09751-.0267.17131-.0693.22017-.0419.04813-.1034.0769-.1842.07757l.0008.1c.1059-.00088.1959-.03967.2588-.11187.0623-.07146.0939-.17076.0939-.28587zm-2.0284-.29517c.984 0 1.498.00498 1.7671.04966.1352.02245.1956.05324.2249.08688.0282.03241.0364.07727.0364.15863h.1c0-.08165-.0063-.16143-.061-.22431-.0537-.06164-.1449-.09677-.2839-.11985-.2795-.0464-.8046-.05101-1.7835-.05101zm-2.0283.28429c0-.07649.00923-.11871.03831-.1496.03114-.03307.09437-.06317.23129-.08519.272-.04376.7863-.0495 1.7587-.0495v-.1c-.9677 0-1.4925.0054-1.77462.05077-.1402.02255-.23277.05652-.28818.11538-.05747.06104-.0655.13861-.0655.21814zm.5137.33854c-.2087-.02021-.3368-.05407-.4127-.10681-.06997-.04862-.101-.11746-.101-.23173h-.1c0 .13597.03911.24101.14394.31385.09889.06871.25016.10389.46016.12423zm1.0425 4.77525c-.0014-2.13875-.0205-3.30459-.1559-3.9459-.0679-.32172-.1668-.5214-.3161-.6446-.1488-.12281-.3393-.16241-.5705-.18475l-.0096.09954c.2287.0221.3925.06002.5165.16234.1235.10192.2158.27497.2819.58812.1326.62845.1523 1.78092.1537 3.92532zm-1.0909 6.09348c.235-.2223.4225-.4435.5704-.7195.1478-.2757.2548-.6037.3319-1.038.1538-.8668.19-2.16591.1886-4.33598l-.1.00007c.0014 2.17228-.0351 3.46201-.1871 4.31841-.0758.4272-.1801.7444-.3215 1.0083-.1413.2637-.3211.4766-.551.694zm-2.76511 1.107c.59295 0 1.06634-.0693 1.50153-.2436.43515-.1742.82855-.4519 1.26358-.8634l-.0687-.0727c-.42954.4064-.81248.6753-1.23205.8433-.41953.168-.87923.2364-1.46436.2364zm-3.33253-2.1935c.40073 1.396 1.62372 2.1935 3.33253 2.1935v-.1c-1.67542 0-2.85083-.7779-3.23641-2.1211zm-.14828-5.1056c-.01733 1.4686-.01383 2.62702.01058 3.4761.0122.4246.02964.7723.05238 1.043.02265.2697.05078.4662.08533.5865l.09611-.0276c-.03161-.1101-.05919-.298-.08179-.5672-.02253-.2682-.0399-.6139-.05207-1.0375-.02435-.84718-.02787-2.00405-.01055-3.47212zm.05178-4.40085-.05178 4.40086.09999.00117.05178-4.40085zm.64088-.24185-.60618.19484.0306.0952.60618-.19483zm.6284-.43682c-.0053.02646-.02358.0609-.05838.10114-.03421.03957-.08155.08147-.13932.12288-.11554.08282-.26865.16071-.4307.21281l.0306.0952c.17135-.05509.33389-.13752.45836-.22673.06222-.04461.11598-.09165.15671-.13875.04015-.04644.07067-.09641.08078-.14692zm-2.33241-.21994c1.07888 0 1.68307.0082 2.01161.0468.16636.01954.2515.04602.29248.0755.01837.01321.02602.02578.02955.03816.00394.01379.00418.03243-.00123.05947l.09805.01964c.00697-.03478.00943-.07125-.00066-.10657-.01049-.03674-.03311-.06727-.06731-.09188-.06417-.04616-.17341-.07416-.33921-.09364-.33579-.03945-.94709-.04748-2.02328-.04748zm-2.387371.29517c0-.08205.008306-.12546.03993-.15752.034453-.03494.106249-.06635.265074-.08885.314647-.04456.919197-.0488 2.082367-.0488v-.1c-1.15868 0-1.77281.00397-2.09639.04979-.160287.0227-.262487.05704-.322252.11764-.062595.06347-.068729.14541-.068729.22774zm16.568541.29516c-.1985 0-.3118-.0204-.3762-.06384-.0576-.03892-.0852-.10373-.0852-.23132h-.1c0 .13957.0302.24733.1293.31421.0924.06236.2348.08095.4321.08095zm1.6263 1.11372c-.102-.37751-.2817-.6581-.5531-.84331-.2706-.1846-.6263-.27041-1.0732-.27041v.1c.4351 0 .7687.08369 1.0168.25301.2473.16873.4156.42651.513.78679zm.1307 5.30049c.0167-1.43217.0128-2.64965-.0095-3.56178-.0111-.45602-.0268-.83611-.0469-1.12873-.02-.29102-.0445-.49967-.0743-.60999l-.0965.0261c.0268.09945.051.29859.071.59074.02.29056.0357.66903.0468 1.12432.0222.9105.0261 2.12668.0095 3.55818zm-1.2273 5.70672c.2651-.0528.4799-.1151.647-.2658.1677-.1513.2806-.3849.36-.7637.1585-.7552.1907-2.1235.2203-4.67722l-.0999-.00116c-.0298 2.55938-.0623 3.91488-.2182 4.65788-.0777.3702-.1844.5794-.3291.7099-.1453.131-.3359.1895-.5996.2421zm-.4715.3766c0-.0957.0344-.1705.1071-.2309.0751-.0625.1936-.1116.3645-.1457l-.0196-.098c-.1778.0354-.3152.0889-.4088.1668-.0961.0799-.1432.1831-.1432.3078zm2.3747.2735c-1.1296 0-1.7314-.0057-2.0515-.0484-.1615-.0216-.2397-.0514-.2787-.0853-.0341-.0296-.0445-.0682-.0445-.1398h-.1c0 .0789.0107.156.0789.2153.0632.055.1684.0872.3311.1089.3284.0438.9389.0493 2.0647.0493zm2.3747-.2594c0 .0642-.0115.0998-.048.1283-.0426.0332-.1257.062-.2898.0829-.3252.0415-.9274.0482-2.0369.0482v.1c1.1062 0 1.7164-.0065 2.0496-.049.1651-.0211.2728-.0519.3386-.1033.072-.0561.0865-.1298.0865-.2071zm-.7332-.4663c.2732.0728.4591.1447.576.2228.1145.0766.1572.1548.1572.2435h.1c0-.1315-.0682-.2374-.2017-.3266-.1312-.0877-.3304-.163-.6058-.2363zm-.987-.8904c.0801.2872.1507.469.2953.599.143.1286.3527.2011.6917.2914l.0257-.0966c-.3421-.0912-.5281-.1591-.6506-.2692-.1208-.1086-.1855-.2638-.2658-.5515zm.0005-8.55137c-.0258-.00288-.0436.01146-.0521.02108-.0085.00952-.014.02072-.0178.02984-.0077.01888-.014.04413-.0195.07294-.0112.05857-.021.14341-.0298.24974-.0176.21323-.0315.51899-.0417.88778-.0205.73786-.0269 1.73105-.0205 2.74767.0063 1.01666.0254 2.05722.0558 2.89002.0152.4163.0332.7811.0538 1.065.0206.2819.044.4893.0713.5873l.0963-.0268c-.0241-.0865-.0471-.2834-.0678-.5677-.0206-.2823-.0385-.6457-.0537-1.0614-.0303-.8315-.0494-1.87106-.0557-2.88705-.0064-1.01602 0-2.00796.0204-2.74426.0103-.3683.024-.67188.0414-.88232.0088-.10551.0183-.18608.0284-.23927.0052-.02707.01-.04428.0138-.05355.002-.00494.0024-.00424 0-.00152-.0025.00283-.0141.01406-.0337.01188zm1.5253 1.61341c-.3752-.43537-.7311-.833-1.0022-1.12296-.1355-.14491-.2503-.26333-.3359-.34624-.0427-.04136-.0788-.07451-.1069-.09782-.014-.0116-.0269-.02147-.0381-.02885-.0056-.00368-.0116-.00724-.0177-.01015-.0055-.0026-.0141-.00624-.0245-.00739l-.011.09939c-.0059-.00066-.009-.00241-.0076-.00178.0007.00033.0026.00136.006.00359.0068.00444.0164.01167.0291.02217.0252.0209.0591.05198.1011.09268.0839.08122.1974.19827.3324.3427.2701.28874.625.68532.9996 1.11994zm4.5567 5.07556c-1.7571-1.92218-3.8076-4.20617-4.5567-5.07556l-.0757.06528c.7501.87059 2.8015 3.15552 4.5586 5.07778zm3.6597 3.4785c-.1938 0-.417-.1066-.9447-.6055-.5248-.4961-1.3395-1.3683-2.715-2.873l-.0738.0675c1.3746 1.5038 2.1921 2.379 2.7201 2.8781.5251.4964.7751.6329 1.0134.6329zm.502 0h-.502v.1h.502zm-.0003-6.06853-.0497 6.11813.1.0008.0497-6.11812zm.2646-6.35275c-.0167.0166-.0283.0403-.0374.06443-.0095.02539-.0182.05703-.0263.09435-.0162.07474-.0311.17696-.0448.30743-.0276.26122-.0511.64056-.0713 1.15021-.0403 1.01956-.0673 2.56425-.0848 4.73633l.1.00081c.0175-2.17199.0445-3.71532.0847-4.73319.0202-.50907.0436-.88579.0708-1.14368.0136-.12907.028-.22716.0431-.29669.0076-.03482.0151-.06131.0222-.08045.0036-.00952.0069-.01657.0097-.02159.0013-.00247.0025-.00425.0034-.00547.0008-.00123.0013-.00169.0013-.00165zm.8047-.33113c-.1624.0331-.3326.08598-.4766.14464-.1418.05777-.2653.12399-.3281.18646l.0705.07089c.0476-.04729.1546-.1074.2953-.16474.1386-.05645.3029-.10747.4588-.13926zm.539-.32086c0 .04628-.0403.1085-.1398.17205-.096.06136-.2346.11526-.3992.14881l.0199.09799c.1733-.03531.3242-.0929.4332-.16253.1055-.06745.1859-.15572.1859-.25632zm-2.3325-.24979c.9755.01969 1.5681.04312 1.9166.08699.1751.02205.283.04867.346.07948.0309.01511.0479.02976.0572.04247.0087.01184.0127.02461.0127.04085h.1c0-.03527-.0096-.06928-.0321-.1-.0219-.02986-.0539-.05358-.0939-.07315-.0789-.03857-.2009-.06664-.3774-.08886-.3548-.04467-.9529-.0681-1.9271-.08776zm-2.3304.25203c0-.0858.007-.13024.0364-.16195.0309-.0335.0972-.06372.2507-.0832.3041-.03856.8944-.03005 2.0433-.00688l.002-.09998c-1.144-.02308-1.7444-.03209-2.0578.00766-.1552.01967-.2544.05256-.3117.11452-.0589.06374-.0629.1471-.0629.22983zm.3733.3c-.1526 0-.2431-.02372-.296-.06749-.0502-.04153-.0773-.11056-.0773-.23251h-.1c0 .13416.0296.24013.1136.30957.0812.06721.2024.09043.3597.09043zm.9418.42831c-.1377-.11797-.3108-.22442-.4792-.30151-.1672-.07653-.3355-.1268-.4626-.1268v.1c.1058 0 .2585.04337.4209.11772.1612.07379.3262.17547.4558.28652zm.486.41627-.486-.41628-.0651.07595.486.41627zm.072 4.19446-.0546-4.15715-.1.00132.0546 4.15714zm-.1491 4.20789c.0263 0 .0419-.0171.048-.0253.0069-.0092.0115-.0196.0147-.0284.0067-.0181.0122-.0422.017-.0701.0099-.0565.0187-.1383.0266-.2419.0159-.2077.0285-.5083.0374-.88157.0178-.74672.0209-1.78668.0054-2.96062l-.1.00132c.0155 1.17317.0124 2.21182-.0054 2.95691-.0089.37266-.0214.67126-.0371.87636-.0078.1027-.0164.1807-.0254.2323-.0046.0262-.0089.0433-.0124.0528-.0018.0051-.0024.0051-.0008.0029.0009-.0012.0112-.0147.032-.0147zm-1.2127-1.18205c.2815.32105.555.61315.769.82535.1069.106.1995.1926.2713.253.0357.0301.0672.0545.0932.0716.013.0086.0255.016.0373.0214.0106.0049.0256.0107.0419.0107v-.1c.0058 0 .0068.0016 0-.0015-.0055-.0025-.0135-.007-.0242-.0141-.0213-.014-.0494-.0356-.0838-.0646-.0688-.0579-.1593-.1424-.2653-.2475-.212-.2102-.4839-.5005-.7642-.82027zm-3.5539-3.92538c1.3934 1.51872 2.9926 3.28505 3.5539 3.92538l.0752-.06592c-.5621-.64127-2.1621-2.40835-3.5554-3.92707zm-3.3834-3.74055c.4674.53854 1.9901 2.22189 3.3834 3.74055l.0737-.06761c-1.3934-1.51879-2.9152-3.20116-3.3816-3.73849zm-.8494-.97819.8494.97819.0755-.06556-.8493-.97819zm-1.7379.00307 1.7753.01415.0008-.1-1.7753-.01415zm-1.7248.28101c0-.08088.0078-.127.0329-.1596.0248-.03215.075-.06171.1897-.08308.2297-.04284.6671-.045 1.5022-.03833l.0008-.1c-.8294-.00662-1.2796-.00507-1.5214.04002-.1211.02259-.2025.05805-.2505.12037-.0477.06189-.0537.1397-.0537.22062zm18.622.29516c-.1854 0-.2923-.02129-.3535-.06466-.0555-.0394-.083-.10502-.083-.2305h-.1c0 .1377.0302.24467.1252.31206.0893.06341.2257.0831.4113.0831zm.8521.25429c-.0988-.07192-.2435-.13512-.3955-.18033-.1525-.04534-.3168-.07396-.4566-.07396v.1c.1277 0 .2823.02644.428.0698.1462.04349.2791.10265.3652.16534zm.4109 5.34682c-.0255-2.38805-.0438-3.65907-.0955-4.36167-.0258-.35071-.0601-.56468-.11-.7065-.0514-.14626-.1194-.216-.2054-.27864l-.0589.08083c.0727.05291.1264.10707.17.23097.0451.12833.0789.33079.1046.68068.0514.69861.0697 1.96551.0952 4.3554zm-1.0555 6.51382c.2568-.0409.4668-.0941.6271-.2539.1597-.1591.2624-.416.3294-.8436.1341-.855.131-2.4358.099-5.41632l-.1.00107c.032 2.98565.0346 4.55525-.0978 5.39975-.0662.4221-.1648.6524-.3012.7883-.1357.1353-.3166.1852-.5722.2259zm-.644.3831c0-.0549.0096-.0987.0288-.1352.0192-.0363.0498-.069.0974-.099.0976-.0615.26-.1078.5178-.1489l-.0157-.0988c-.2583.0412-.439.0897-.5554.1631-.0595.0375-.1037.0823-.1325.1369-.0287.0545-.0404.1153-.0404.1819zm2.5479.273c-1.2135 0-1.8589-.0055-2.2015-.0481-.1731-.0215-.2575-.0515-.2996-.086-.0363-.0297-.0468-.0677-.0468-.1389h-.1c0 .0794.0112.1571.0834.2163.0664.0543.1771.0863.3506.1078.3505.0436 1.004.0489 2.2139.0489zm2.5479-.2951c0 .0823-.0083.1251-.0415.1571-.0369.0355-.1139.0671-.2831.0896-.335.0445-.98.0484-2.2233.0484v.1c1.2391 0 1.8931-.0037 2.2364-.0493.17-.0226.277-.0566.3394-.1167.066-.0637.0721-.1464.0721-.2291zm-.3499-.2952c.1385 0 .2233.0247.274.0684.0487.042.0759.1109.0759.2268h.1c0-.1297-.0305-.2334-.1106-.3025-.0783-.0676-.1934-.0927-.3393-.0927zm-.7655-.2542c.0979.0712.232.1344.3686.1798.1365.0454.2798.0744.3969.0744v-.1c-.1028 0-.235-.026-.3654-.0693-.1302-.0433-.2541-.1024-.3412-.1658zm-.407-5.72832c.0239 2.57812.0408 3.94412.0918 4.69432.0254.3745.0595.6003.1092.7481.0251.0748.0546.1308.0897.1765.0352.0456.0745.0789.1163.1094l.0589-.0809c-.0378-.0275-.0688-.0543-.0959-.0895s-.0519-.0809-.0742-.1473c-.0452-.1346-.0789-.3492-.1043-.7231-.0507-.7464-.0676-2.1086-.0915-4.68844zm.3178-5.83154c-.0885.08821-.1594.16948-.2111.32654-.0506.15334-.0825.37748-.102.75089-.0391.74768-.0291 2.11324-.0047 4.75412l.1-.00093c-.0244-2.6429-.0343-4.00423.0045-4.74797.0195-.3723.0511-.585.0971-.72481.0449-.13609.1038-.20427.1868-.287zm.8216-.36667c-.1286 0-.2838.04234-.43.1078-.1466.06564-.2891.15677-.3916.25887l.0706.07084c.0919-.09155.2234-.17645.3619-.23844.1388-.06218.2796-.09907.3891-.09907zm.383-.29516c0 .12006-.0274.18761-.0786.22842-.0545.04342-.1477.06674-.3044.06674v.1c.1608 0 .2841-.02266.3667-.08854.086-.06847.1163-.1735.1163-.30662zm-2.5479-.29517c1.2433 0 1.8883.00397 2.2233.04847.1692.02249.2462.05411.2831.08963.0332.032.0415.07481.0415.15707h.1c0-.08265-.0061-.16543-.0721-.22907-.0624-.06011-.1694-.09418-.3393-.11675-.3434-.04563-.9974-.04935-2.2365-.04935zm-2.5479.29517c0-.08226.0083-.12507.0415-.15707.0369-.03552.1139-.06714.2831-.08963.335-.0445.98-.04847 2.2233-.04847v-.1c-1.2391 0-1.8931.00372-2.2364.04935-.17.02257-.277.05664-.3394.11675-.066.06364-.0721.14642-.0721.22907zm18.5584.29516c-.2165 0-.375-.11816-.4248-.30785l-.0967.02538c.0624.23797.2641.38247.5215.38247zm.7977.41749c-.1084-.1151-.2508-.21873-.3929-.29373-.141-.07439-.2878-.12376-.4048-.12376v.1c.0934 0 .2231.04098.3581.11221.1339.07062.267.16788.3669.27386zm2.6937 6.44512c-.6439-1.68397-1.262-3.23553-1.7457-4.39433-.2418-.57935-.4502-1.06085-.6114-1.41176-.0806-.17541-.1497-.31865-.2054-.42535-.0278-.05332-.0526-.09798-.0739-.13318-.0209-.03439-.0402-.06244-.0573-.08052l-.0727.06862c.0094.00996.0242.03037.0445.06383.0198.03265.0435.07524.0708.12754.0546.10455.1228.24607.2031.42081.1606.34937.3684.82965.61 1.40853.4832 1.15764 1.1009 2.70824 1.7446 4.39153zm2.3047 6.02692-2.3047-6.02692-.0934.03572 2.3047 6.0269zm.5618.0197-.6043-.0517-.0085.0997.6043.0516zm.6043.0515-.6043-.0515-.0085.0996.6043.0516zm1.568-4.2477-1.619 4.2799.0935.0354 1.619-4.2799zm1.8289-4.69864c-.0585.11664-.2938.70492-.6242 1.55399-.3312.85095-.7594 1.96763-1.2047 3.14465l.0935.0354c.4453-1.17681.8733-2.29319 1.2044-3.14378.3318-.85248.5646-1.43423.6204-1.54541zm.8514 1.04015c-.13-.34141-.2306-.60205-.3114-.79453-.0801-.19106-.1425-.3197-.1967-.39359-.0268-.03651-.0563-.06632-.0908-.08004-.0395-.01571-.0771-.00726-.1083.01466-.0282.01981-.0523.05105-.0742.08547-.0223.03529-.0454.07892-.07.12787l.0894.04488c.0244-.04856.0456-.08839.0651-.11918.0201-.03165.0356-.04908.0472-.05721.0085-.00601.0109-.00475.0139-.00356.008.00318.0237.01436.0471.04628.0462.06298.1046.18097.1851.37309.08.1907.18.44979.3102.79146zm1.7963 4.68529c-.6842-1.77967-1.4927-3.88803-1.7963-4.68528l-.0934.03559c.3036.79741 1.1121 2.90591 1.7964 4.68559zm1.2441 3.2359-1.244-3.2359-.0934.0359 1.2441 3.2359zm.5015-.0321h-.5482v.1h.5482zm.59-.1973c-.0073.0189-.0257.0419-.06.0664-.0336.024-.079.0468-.1337.0665-.1095.0395-.2507.0644-.3963.0644v.1c.1561 0 .3089-.0266.4302-.0703.0606-.0218.1148-.0484.1579-.0792.0426-.0304.0782-.0676.0952-.1118zm1.7684-4.5305c-.9239 2.3655-1.7198 4.4044-1.7684 4.5305l.0933.036c.0485-.1259.8442-2.1644 1.7683-4.5301zm2.2748-5.82343c-.327.83736-1.3506 3.45801-2.2748 5.82343l.0932.0364c.9241-2.36543 1.9477-4.98609 2.2747-5.82346zm1.5177-2.37755c-.1504.05225-.2765.10762-.3915.19287-.1153.08544-.2168.19889-.3215.36412-.2077.32797-.433.86876-.8047 1.82055l.0931.03638c.373-.95507.5947-1.48541.7961-1.80342.0999-.15775.1936-.261.2965-.33729.1032-.07649.2184-.12788.3648-.17875zm.4463-.38731c0 .05179-.0403.1249-.1245.20111-.0817.07397-.1958.14244-.3218.1862l.0328.09446c.1379-.04788.2638-.12299.3561-.20653.0898-.08132.1574-.17965.1574-.27524zm-2.0283-.21787c.8826 0 1.3985.01028 1.6939.04836.1486.01916.2338.0446.2811.07422.0225.0141.0349.02822.0421.04192.0073.01385.0112.0308.0112.05337h.1c0-.03422-.0059-.06823-.0227-.10007-.017-.03201-.043-.05832-.0776-.07998-.0669-.0419-.1708-.06923-.3213-.08864-.3031-.03908-.8263-.04918-1.7067-.04918zm-2.0284.29517c0-.08136.0082-.12622.0365-.15863.0293-.03364.0896-.06443.2249-.08688.269-.04468.783-.04966 1.767-.04966v-.1c-.9789 0-1.504.00461-1.7834.05101-.139.02308-.2302.05821-.2839.11985-.0548.06288-.0611.14266-.0611.22431zm.3688.29516c-.1489 0-.2385-.0239-.2913-.06739-.0501-.0413-.0775-.10941-.0775-.22777h-.1c0 .13172.0305.23619.1139.30495.0808.06657.2006.09021.3549.09021zm1.0168.65042c0-.22298-.0796-.39089-.2546-.4995-.1697-.10544-.4232-.15092-.7622-.15092v.1c.3342 0 .5642.04565.7095.13587.1402.08706.2073.21936.2073.41455zm-3.5169 9.54041c.0126-.0125.0252-.0343.0368-.056.0128-.0242.0283-.0561.0462-.0948.0357-.0777.0819-.1851.1368-.3178.1099-.2654.2556-.6335.4246-1.0703.3379-.87366.7695-2.023 1.1946-3.17681.4251-1.1538.8439-2.3123 1.1565-3.20427.1562-.44594.286-.82552.3768-1.10467.0454-.13952.0811-.25435.1056-.34001.0122-.04278.0217-.07877.0283-.10716.0061-.02677.0107-.05127.0107-.06859h-.1c0 .00448-.0018.0186-.0082.04619-.006.02598-.015.0601-.027.10211-.0239.08394-.0593.19744-.1045.33654-.0904.27808-.2199.65683-.3761 1.10252-.3123.8913-.7309 2.04926-1.156 3.20277-.425 1.15351-.8563 2.30232-1.194 3.17528-.1689.4366-.3143.8038-.4237 1.0682-.0548.1322-.1003.2383-.1353.3142-.0174.038-.032.0679-.0436.0895-.0057.0109-.0105.0191-.0142.0251-.0043.0066-.0058.008-.0049.0071zm-3.2962-8.99522c.0142.10148.0739.32021.1655.62028.0922.30184.2181.69019.3663 1.13369.2965.88705.683 1.99571 1.0699 3.07618.387 1.08044.7746 2.13307 1.0733 2.90787.1493.3873.2766.7058.3706.9237.0469.1088.086.1936.1157.2497.0146.0276.0281.0506.0401.0662.0054.0071.0138.017.0247.024.0057.0036.0159.009.0295.0095405.0157.0005595.0302-.0055405.0406-.0159405l-.0706-.0709c.0085-.0084.0207-.0137.0338-.0131.0109.0004.0181.0046.0205.0061.0043.0027.0046.0044.0008-.0006-.0066-.0086-.0169-.0253-.031-.052-.0278-.0525-.0656-.1343-.1123-.2426-.0932-.2161-.2199-.5331-.3691-.9201-.2983-.7738-.6856-1.82555-1.0724-2.90559-.3868-1.08002-.773-2.18798-1.0693-3.07417-.1481-.44312-.2736-.83054-.3654-1.13119-.0924-.30241-.1493-.51287-.1621-.60486zm.9942-1.19561c-.3719 0-.6517.09888-.8231.30552-.171.20608-.2243.50751-.1711.89009l.0991-.01378c-.0514-.36919.0035-.63713.149-.81246.145-.17477.3898-.26937.7461-.26937zm.3499-.29516c0 .11588-.0273.18478-.076.22682-.0506.04367-.1355.06834-.2739.06834v.1c.1459 0 .261-.02511.3392-.09263.0801-.06914.1107-.17283.1107-.30253zm-2.6346-.29517c1.2866 0 1.9534.00383 2.2993.04831.1749.02248.2547.05419.2928.09003.0341.03198.0425.07449.0425.15683h.1c0-.08282-.0061-.16604-.074-.22974-.0638-.05985-.1734-.09379-.3486-.11631-.354-.04552-1.0295-.04912-2.312-.04912zm-2.6345.29517c0-.08234.0083-.12485.0424-.15683.0382-.03584.118-.06755.2929-.09003.3459-.04448 1.0127-.04831 2.2992-.04831v-.1c-1.2824 0-1.9579.0036-2.312.04912-.1751.02252-.2848.05646-.3485.11631-.0679.0637-.074.14692-.074.22974zm.2185.29516c-.1144 0-.2185-.11362-.2185-.29516h-.1c0 .21195.127.39516.3185.39516zm1.4888 1.08072c-.0966-.27607-.33-.5454-.605-.74508-.2747-.19957-.5992-.33564-.8838-.33564v.1c.2561 0 .5602.12419.8251.31655.2647.19225.4816.44653.5693.69719zm-1.4954 5.69978c.7784-2.07113 1.2193-3.3012 1.4322-4.10816.2134-.80885.2001-1.20054.0632-1.59163l-.0944.03303c.1277.36466.1454.73395-.0655 1.53308-.2114.80103-.6502 2.02593-1.4291 4.0985zm-1.3228 3.52023 1.3228-3.52023-.0936-.03518-1.3228 3.52021zm-.3778-.6707.2849.6726.0921-.039-.2849-.6726zm-1.813-4.85206c.8395 2.29667 1.6556 4.48076 1.813 4.85206l.0921-.039c-.1561-.3684-.9711-2.54923-1.8112-4.8474zm-.5374-4.77797c-.1365 0-.2584.00305-.3626.0178-.1041.01472-.1952.04169-.2671.09282-.1494.10617-.1939.29821-.1555.60842.0388.31225.164.76433.3813 1.4174.2176.65403.5288 1.51334.9413 2.64153l.0939-.03434c-.4126-1.1285-.7233-1.98638-.9403-2.63876-.2174-.65333-.3396-1.09686-.3769-1.39814-.0376-.30332.013-.44272.1141-.5146.0533-.0379.1263-.06162.2232-.07532.0966-.01368.2124-.01681.3486-.01681zm.4484-.29516c0 .12659-.0275.19181-.0841.23094-.0626.04339-.1726.06422-.3643.06422v.1c.1912 0 .3304-.01912.4212-.082.097-.06713.1272-.17449.1272-.31316zm-2.5316-.29517c1.2352 0 1.876.00397 2.209.04847.1682.02248.2446.05408.2812.08954.0331.03201.0414.07489.0414.15716h.1c0-.08264-.0061-.16535-.0718-.22898-.0621-.06017-.1686-.09426-.3376-.11684-.3414-.04563-.9913-.04935-2.2222-.04935zm-2.4429.28249c-.0109-.04174-.0179-.07369-.0189-.09991-.0009-.02496.0036-.04072.0125-.05302.0094-.01312.0281-.02856.0674-.04357.0394-.01502.0954-.02813.1741-.03904.3173-.04396.9571-.04695 2.2078-.04695v-.1c-1.2459 0-1.8954.00272-2.2215.04789-.082.01137-.1465.02577-.196.04468-.0496.01892-.0881.04384-.1131.07872-.0256.03571-.0326.0756-.0311.11515.0015.03828.0111.07971.0221.1214zm35.1009.41275c-.004-.00914-.0088-.02969-.0128-.06091-.0039-.02955-.0065-.06375-.0082-.09668-.0018-.03281-.0027-.0637-.0031-.08644-.0002-.01135-.0003-.02062-.0004-.02703 0-.00321 0-.00569 0-.00736 0-.00084 0-.00147 0-.00188 0-.00021 0-.00036 0-.00046 0-.00005 0-.00008 0-.0001 0-.00001 0-.00002 0-.00002 0-.00001 0 0 0-.00001 0 .00001 0 .00001-.05-.00004-.05-.00004-.05-.00004-.05-.00003v.00001.00005.00015.00056.00209.00781c.0001.00673.0002.01638.0004.02814.0005.02349.0014.05559.0032.08988.0018.03416.0046.07116.0089.10423.0041.03139.0101.06487.0206.08852zm.1696.11042c.0066-.04957.0066-.04957.0066-.04957-.0001-.00001-.0002-.00002-.0003-.00004-.0003-.00004-.0007-.0001-.0013-.00018-.0012-.00017-.003-.00044-.0054-.00081-.0047-.00073-.0116-.00187-.02-.00343-.0169-.00315-.0395-.00794-.0626-.01455-.0235-.00671-.0457-.01478-.0628-.02394-.0085-.00454-.0147-.00879-.0188-.01245-.0042-.00371-.0051-.00569-.005-.00545l-.0914.04048c.0142.03206.0437.05259.068.06559.026.01389.0558.02427.0825.03191.0271.00774.0529.0132.0718.01672.0095.00177.0174.00307.023.00394.0028.00043.005.00076.0065.00098.0008.00011.0014.0002.0019.00026.0002.00003.0004.00005.0005.00007.0001.00001.0001.00002.0002.00002v.00001c.0001 0 .0001.00001.0066-.04956zm.3415.03544c-.1039-.02573-.2135-.05285-.3285-.08373l-.0259.09658c.1161.03117.2265.05851.3303.08422zm1.0719.5932c-.0796-.18634-.2193-.30264-.4026-.38808-.1811-.08441-.4092-.1407-.6693-.20512l-.0241.09707c.2633.0652.4808.11926.6512.19868.1681.07841.2857.17945.3529.33674zm.1108 5.38621c-.0006-2.16342-.0025-3.44758-.0166-4.21986-.0071-.38602-.0172-.64525-.0319-.82289-.0146-.17632-.034-.27739-.0623-.34348l-.0919.03933c.0214.04999.04.13686.0545.3124.0145.17423.0246.43077.0316.81647.0141.77115.016 2.05419.0166 4.21803zm-.1253 5.44225c.0651-.1609.0954-.386.1107-1.1314.0153-.7485.0152-2.0298.0146-4.31088h-.1c.0006 2.28178.0007 3.56158-.0146 4.30878-.0154.7503-.0465.9555-.1034 1.096zm-1.1426.7896c.336-.0943.5818-.1927.7635-.3171.1834-.1257.2998-.2768.3791-.4725l-.0927-.0375c-.0722.1783-.1764.3134-.3429.4275-.1682.1152-.4016.21-.7341.3033zm-.355.1445c.0138-.0128.0411-.029.0793-.0468.037-.0171.0798-.0337.121-.0484.0411-.0145.0798-.0269.1083-.0356.0142-.0044.0259-.0078.0339-.0101.004-.0012.0072-.0021.0093-.0027.001-.0003.0018-.0005.0023-.0007.0003 0 .0005-.0001.0006-.0001h.0001c0-.0001 0-.0001 0-.0001s0 0-.0134-.0481c-.0134-.0482-.0134-.0482-.0134-.0482-.0001 0-.0002.0001-.0002.0001-.0002 0-.0004.0001-.0007.0002-.0006.0001-.0015.0004-.0027.0007-.0022.0007-.0055.0016-.0098.0028-.0084.0025-.0205.0061-.0353.0106-.0294.009-.0696.0218-.1124.037-.0427.0152-.0888.0329-.1297.0519-.0396.0184-.0791.04-.1051.064zm-.1286.2012c.0498.0045.0498.0045.0498.0046s0-.0001 0-.0002c0-.0002 0-.0005.0001-.001.0001-.001.0003-.0025.0005-.0046.0005-.0041.0013-.0101.0025-.0177.0025-.0153.0065-.0363.0128-.0593.0131-.0483.0338-.0962.0629-.123l-.0679-.0735c-.0506.0468-.0772.1178-.0915.1702-.0074.0272-.0121.0519-.015.0697-.0014.009-.0024.0163-.003.0215-.0004.0026-.0006.0047-.0007.0061-.0001.0008-.0002.0014-.0002.0018-.0001.0002-.0001.0004-.0001.0005v.0002.0001s0 0 .0498.0046zm.0985.1917c-.0233-.025-.0371-.0685-.0437-.1135-.0031-.0213-.0043-.0407-.0048-.0548-.0002-.007-.0002-.0125-.0002-.0163.0001-.0018.0001-.0032.0001-.0041 0-.0004 0-.0007 0-.0009 0-.0001 0-.0001 0-.0001s0 0-.0499-.002c-.05-.0021-.05-.0021-.05-.0021v.0001.0002.0005c0 .0004 0 .001-.0001.0017 0 .0014 0 .0034-.0001.0058 0 .0049 0 .0118.0003.0203.0005.0168.002.0402.0058.0662.0073.0496.0245.119.0694.1672zm.2135.0724c-.0094-.0491-.0094-.0491-.0094-.0491h.0001s0 0-.0001 0c0 0-.0001 0-.0002 0-.0002.0001-.0006.0001-.0011.0002-.0011.0002-.0028.0005-.0051.0009-.0045.0007-.0112.0017-.0195.0027-.0167.0019-.0394.0038-.0638.0036-.0246-.0002-.0492-.0025-.0704-.0081-.0216-.0056-.0358-.0137-.044-.0226l-.0732.0682c.0258.0277.0599.0428.0917.0511.0321.0085.0657.0112.0951.0114.0297.0002.0567-.002.0763-.0043.0098-.0012.0178-.0024.0235-.0033.0029-.0004.0051-.0008.0068-.0011.0008-.0001.0014-.0002.0019-.0003.0002-.0001.0004-.0001.0005-.0001.0001-.0001.0002-.0001.0002-.0001h.0001s.0001 0-.0094-.0491zm1.7334-.0454-1.7332-.0046-.0003.1 1.7332.0046zm2.8749.0232-2.8746-.0232-.0009.1 2.8747.0232zm.1386-.043c-.0194.0248-.0496.0368-.0804.0417-.0149.0023-.0285.0027-.0383.0026-.0048-.0001-.0086-.0004-.011-.0006-.0012-.0001-.0021-.0002-.0026-.0002-.0002-.0001-.0003-.0001-.0004-.0001h.0001.0001v.0001c.0001 0 .0001 0-.0065.0495-.0065.0496-.0065.0496-.0065.0496h.0001.0002c.0002.0001.0004.0001.0006.0001.0004.0001.0009.0001.0016.0002.0013.0001.003.0003.0051.0005.0042.0003.0101.0007.0172.0008.0142.0003.0338-.0002.0559-.0037.0432-.0068.1021-.0259.1436-.0788zm.0848-.1993c-.0498.005-.0498.005-.0498.005v.0001c.0001.0002.0001.0005.0001.0009.0001.0009.0002.0023.0003.0042.0003.0037.0006.0094.0009.0164.0004.0142.0005.0338-.0012.0554-.0036.0458-.0142.0906-.0351.1173l.0788.0617c.04-.0511.0521-.1213.056-.1712.002-.0262.002-.0496.0014-.0664-.0003-.0085-.0007-.0154-.001-.0203-.0002-.0024-.0003-.0044-.0005-.0057 0-.0007-.0001-.0013-.0001-.0017 0-.0002 0-.0004-.0001-.0005 0-.0001 0-.0001 0-.0002 0 0 0 0 0-.0001s0 0-.0497.0051zm-.1106-.2005c.0263.0254.0429.0714.052.1191.0043.0226.0064.0433.0075.0583.0006.0075.0008.0135.001.0175 0 .002 0 .0035.0001.0045v.001.0001h.05c.05 0 .05 0 .05-.0001s0 0 0-.0001v-.0001c0-.0002 0-.0004 0-.0006 0-.0004 0-.001 0-.0017-.0001-.0015-.0001-.0036-.0002-.0062-.0002-.0052-.0005-.0125-.0011-.0214-.0013-.0179-.0039-.0425-.0091-.0698-.0098-.0521-.0311-.1243-.0806-.1723zm-.3346-.1782c-.0114.0487-.0114.0487-.0114.0487h.0002c.0001.0001.0003.0001.0005.0002.0005.0001.0013.0003.0023.0005.0021.0005.0052.0013.0092.0023.0079.0019.0194.0048.0335.0086.0282.0074.0664.0181.1069.031s.0825.0278.1185.0436c.0374.0164.0628.0315.0749.0433l.0696-.0718c-.0257-.025-.0654-.046-.1043-.0631-.0405-.0178-.0861-.0339-.1284-.0473-.0425-.0135-.0824-.0247-.1116-.0324-.0147-.0039-.0267-.0069-.0351-.009-.0042-.001-.0075-.0018-.0098-.0024-.0011-.0003-.002-.0005-.0026-.0006-.0003-.0001-.0005-.0001-.0007-.0002-.0001 0-.0001 0-.0002 0s-.0001 0-.0001-.0001c0 0 0 0-.0114.0487zm-1.1755-.6861c.1572.3607.5109.5741 1.1636.7347l.0239-.0971c-.6458-.1589-.9583-.362-1.0958-.6775zm-.1418-2.3618c.0083.7061.0153 1.2299.034 1.6087.0094.1894.0217.3436.0388.4667.0169.1225.0389.2173.069.2864l.0917-.0399c-.0246-.0566-.0451-.1407-.0617-.2602-.0164-.1189-.0286-.2698-.0379-.458-.0186-.3764-.0256-.8981-.0339-1.6049zm0-2.07193v2.07133h.1v-2.07133zm.2876.0954c-.0697-.0488-.138-.09664-.213-.13895l-.0491.0871c.07.03954.1344.08453.2048.13379zm2.2692.55805c-.7724-.02235-1.2587-.10581-1.5916-.2111-.3316-.10485-.5131-.2319-.6776-.34695l-.0573.08194c.167.11681.3585.25086.7048.36036.3448.10906.8411.1932 1.6188.21571zm3.6367-1.7302c-.6633.9582-1.7777 1.78401-3.6367 1.7302l-.0029.09996c1.8966.05492 3.0415-.79046 3.7219-1.77325zm.4329-4.07647c.4891 1.61198.229 3.1204-.4329 4.07647l.0823.05691c.6818-.98493.9429-2.52592.4463-4.16241zm-3.9272-2.67334c2.0178.10083 3.4419 1.07413 3.9272 2.67334l.0957-.02903c-.5005-1.64927-1.969-2.6418-4.0179-2.74418zm-3.4589.03845c.8618-.03911 2.4017-.09128 3.4589-.03845l.005-.09987c-1.0626-.0531-2.6068-.00068-3.4685.03842zm-.2415.01083.2415-.01083-.0045-.0999-.2415.01083zm-2.1863.15332c.4669-.04442 1.4043-.11921 2.1862-.15332l-.0043-.09991c-.7841.03421-1.7232.10915-2.1914.15368zm-.1422.03975c.0154-.01952.0197-.02191.0292-.02491.017-.00541.045-.00837.1117-.01472l-.0095-.09955c-.0606.00576-.1025.00945-.1325.01896-.0376.01193-.0573.03273-.0775.05838zm-.0683.09939c.0498-.0039.0498-.00389.0498-.00388v.00002c.0001.00001.0001.00003.0001.00004v.00004c0 .00002 0 .00002 0 0 0-.00004-.0001-.00015-.0001-.00033 0-.00038 0-.00103-.0001-.00195-.0001-.00184-.0002-.00468-.0002-.0083 0-.00731.0002-.01744.0014-.02862.0025-.02449.0086-.04522.0174-.05641l-.0786-.06184c-.0268.03416-.0353.07858-.0383.10791-.0016.01573-.002.02968-.0019.03972.0001.00505.0002.0092.0003.01219.0001.00149.0002.00271.0002.0036.0001.00045.0001.00082.0001.00111v.00036.00014.00006.00002c.0001.00002.0001.00003.0499-.00388zm8.3491 3.83205c0 .71328-.0147 1.80093-.7521 2.49407l.0685.07287c.7734-.72707.7836-1.861.7836-2.56694zm-3.0121-3.2025c1.2528 0 1.984.5263 2.4137 1.18628.4319.6634.5617 1.46635.5985 2.01954l.0998-.00665c-.0373-.55948-.1688-1.38278-.6145-2.06745-.448-.6881-1.2106-1.23172-2.4975-1.23172zm-1.7922.84766c.0155-.38021.3016-.60021.6766-.72263.374-.1221.8193-.14019 1.1131-.12509l.0051-.09987c-.3-.01541-.759.00248-1.1492.1299-.3893.1271-.7274.37017-.7455.81361zm-.0438 2.72289c-.0047-.78081-.0029-1.42534.0046-1.89269.0037-.23372.0089-.42282.0155-.56236.0066-.14207.0145-.22721.0222-.2576l-.0969-.02457c-.0108.04235-.0187.139-.0252.27749-.0066.14102-.0119.33127-.0156.56543-.0076.46839-.0093 1.11374-.0046 1.89491zm.015 2.493-.015-2.493-.1.00061.015 2.49299zm.2318.09222-.2585-.13615-.0466.08847.2585.13615zm.6407.23501c-.3111-.06092-.488-.1544-.6267-.22763l-.0467.08843c.1418.07489.3289.17364.6542.23733zm3.2085-.69421c-.3682.34611-.9186.56947-1.5059.68117-.5868.11157-1.2045.11057-1.7026.01304l-.0192.09813c.5116.10019 1.1423.10082 1.7404-.01293.5976-.11363 1.1685-.34254 1.5558-.70654zm-15.5436-6.69161c-.0179-.04668-.0179-.04668-.0179-.04668v.00001c-.0001 0-.0001.00001-.0001.00002-.0001.00003-.0002.00006-.0003.00011-.0002.00009-.0006.00023-.001.00041-.001.00036-.0024.00091-.0043.00163-.0037.00143-.0093.00357-.0166.00636-.0145.00557-.0359.01374-.0631.02414-.0545.0208-.1325.05051-.2265.08613l.0354.09351c.0941-.03566.1722-.06539.2267-.08622.0273-.01041.0487-.0186.0633-.02418.0073-.00279.0129-.00493.0166-.00638.0019-.00072.0033-.00126.0043-.00163.0005-.00019.0008-.00032.0011-.00042.0001-.00004.0002-.00008.0002-.0001.0001-.00001.0001-.00002.0001-.00003 0 0 0 0 0-.00001s0 0-.0179-.04667zm.4112-.03089c-.0336-.04276-.0825-.06096-.1288-.06738-.0464-.00642-.0958-.00197-.1392.00571-.0438.00775-.0841.01928-.1133.02876-.0147.00476-.0267.00906-.0351.01221-.0042.00157-.0076.00286-.0099.00378-.0012.00046-.0021.00083-.0027.00109-.0004.00013-.0006.00024-.0008.00032-.0001.00003-.0002.00007-.0003.00009v.00004c-.0001 0-.0001.00001-.0001.00001s0 .00001.019.04626c.019.04624.019.04625.019.04625v.00001c0-.00001 0-.00001 0-.00003.0001-.00003.0003-.00009.0005-.00017.0004-.00017.0011-.00044.002-.0008.0018-.00072.0046-.0018.0082-.00316.0073-.00272.018-.00654.0311-.0108.0264-.00857.062-.0187.0998-.02539.0383-.00677.0762-.00954.108-.00513.0319.00441.0522.0151.064.0301zm.3899.96356c-.1263-.32591-.2151-.555-.2757-.70702-.0304-.07596-.0539-.13319-.0717-.17382-.0088-.0203-.0165-.03694-.023-.04993-.006-.01202-.0126-.02403-.0195-.03279l-.0786.06177c-.0003-.00039.0004.00047.0022.00358.0017.0029.0038.00691.0065.01228.0054.01076.0123.0256.0208.04517.0171.03907.0401.09505.0704.17081.0604.15143.149.37992.2753.70608zm.1667.42986c-.0618-.15906-.1171-.30194-.1667-.42986l-.0933.03613c.0496.12792.105.27082.1667.42992zm1.202 3.09402c-.2846-.73173-.8255-2.12404-1.202-3.09402l-.0933.03619c.3766.97.9175 2.36233 1.2022 3.09408zm1.2511 3.21783c-.4035-1.03806-.9664-2.48608-1.2511-3.21783l-.0931.03625c.2846.73174.8475 2.17975 1.251 3.2178zm1.1507 2.95926c-.2294-.5895-.7473-1.9212-1.1507-2.95926l-.0932.03622c.4034 1.03804.9213 2.36974 1.1507 2.95934zm.5985 1.303c-.0178-.0244-.0499-.0803-.0927-.1631-.0422-.0816-.0934-.1865-.1493-.3065-.1119-.2401-.2421-.5398-.3565-.8334l-.0931.0363c.1152.2959.2463.5975.3589.8393.0563.1209.1082.2271.1512.3103.0424.082.0778.1447.1009.1762zm.1291.2017c-.0448-.0742-.0872-.1447-.129-.2017l-.0807.0591c.0386.0527.0786.1188.1241.1942zm.8575.7411c-.4514-.0728-.6785-.4446-.8575-.7411l-.0856.0516c.1754.2906.4238.707.9272.7882zm.4576.1355c-.0136-.0144-.0325-.025-.0494-.0329-.0181-.0085-.0393-.0165-.0618-.0238-.045-.0148-.0986-.0284-.1494-.0399-.051-.0116-.1002-.0213-.1365-.0281-.0181-.0034-.0332-.0061-.0437-.0079-.0052-.0009-.0093-.0016-.0122-.0021-.0014-.0002-.0025-.0004-.0032-.0006-.0004 0-.0007-.0001-.0009-.0001-.0001 0-.0001 0-.0002 0-.0001 0-.0001 0-.0001 0s0-.0001-.0081.0493c-.0082.0493-.0082.0493-.0082.0493h.0002c.0002.0001.0004.0001.0008.0002.0006.0001.0017.0003.003.0005.0027.0004.0066.0011.0117.002.0102.0018.0248.0044.0426.0077.0355.0066.0833.0161.1326.0273.0496.0112.0998.0241.1405.0374.0203.0067.0374.0132.0503.0193.0065.003.0114.0057.0149.0079.0037.0024.0048.0035.0044.0032zm.0316.1994c.0497-.0059.0497-.0059.0497-.0059s0 0 0-.0001c-.0001-.0001-.0001-.0001-.0001-.0002s0-.0002 0-.0004c-.0001-.0003-.0001-.0007-.0002-.0012-.0001-.0011-.0003-.0025-.0006-.0043-.0005-.0036-.0013-.0086-.0025-.0147-.0023-.0122-.0059-.029-.0116-.048-.0108-.0366-.0306-.0868-.0663-.1246l-.0727.0687c.0196.0208.0339.0531.0432.0844.0044.0149.0073.0283.0091.038.0009.0047.0015.0085.0019.011.0002.0012.0003.0021.0004.0027 0 .0002.0001.0004.0001.0005 0 0 0 .0001 0 0s0 0 .0496-.0059zm.05.2v-.2h-.1v.2zm-.0463.1235c.0195-.0277.0308-.0568.0372-.0782.0032-.0109.0054-.0202.0067-.027.0007-.0034.0011-.0062.0015-.0083.0001-.001.0003-.0018.0003-.0025.0001-.0003.0001-.0006.0002-.0008 0-.0001 0-.0002 0-.0003s0-.0001 0-.0002c0-.0001 0-.0001-.0496-.0062-.0496-.0062-.0496-.0062-.0496-.0062 0-.0001 0-.0001 0-.0001s0 0 0-.0001c0-.0001 0-.0001 0 0s0 .0004-.0001.0009c-.0002.0009-.0004.0024-.0008.0045-.0008.0042-.0022.0103-.0044.0177-.0045.015-.0118.0332-.023.049zm-.1846.0024c-.0053.0498-.0053.0498-.0053.0498h.0001.0001.0004c.0004.0001.0008.0001.0013.0001.0011.0001.0026.0003.0044.0004.0037.0003.0089.0006.0151.0009.0123.0005.0295.0007.048-.0007.0182-.0014.0397-.0044.06-.0112.0197-.0065.044-.0185.0605-.0417l-.0816-.0578c.0011-.0016-.0003.0012-.0105.0047-.0095.0031-.022.0052-.0359.0063-.0136.001-.0266.0009-.0364.0005-.0049-.0002-.0088-.0005-.0114-.0007-.0013-.0001-.0023-.0002-.0029-.0002-.0003-.0001-.0005-.0001-.0006-.0001s-.0001 0-.0001 0h.0001s0 0-.0053.0497zm-2.8823.0502 2.8823-.0002v-.1l-2.8823.0002zm-2.0501.0148 2.0505-.0148-.0007-.1-2.0505.0148zm-.1461-.0377c.0326.027.073.0349.1.0375.0142.0013.0267.0013.0357.001.0046-.0002.0083-.0005.011-.0007.0014-.0001.0025-.0002.0034-.0003.0004 0 .0008-.0001.001-.0001s.0003 0 .0004-.0001h.0002.0001s0 0-.0061-.0496c-.006-.0496-.006-.0496-.006-.0497h.0001.0001s0 0-.0002 0c-.0002.0001-.0006.0001-.0013.0002-.0014.0001-.0035.0002-.0064.0003-.0057.0003-.0137.0002-.0227-.0006-.0194-.0018-.0359-.0069-.0456-.0149zm-.0323-.1617c-.0486.0121-.0486.0121-.0486.0121h.0001v.0002c0 .0001 0 .0002.0001.0003 0 .0003.0001.0006.0002.001.0003.0009.0006.0021.001.0035.0008.0029.0019.007.0035.012.003.0098.0075.0234.0136.0383.0112.0275.0311.0684.0624.0943l.0637-.077c-.0109-.0091-.0231-.0297-.0335-.0551-.0047-.0115-.0083-.0222-.0107-.03-.0012-.0038-.002-.0069-.0026-.009-.0003-.001-.0005-.0018-.0006-.0022-.0001-.0002-.0001-.0004-.0001-.0005s0 .0001-.0485.0121zm-.05-.1506v.1506h.1v-.1506zm.0757-.2438c-.0483.0581-.0671.1205-.0738.1677-.0034.0237-.0038.0438-.0034.0584.0002.0073.0007.0132.0011.0175.0002.0021.0004.0039.0006.0052.0001.0007.0002.0012.0002.0017.0001.0002.0001.0004.0001.0006v.0002s.0001.0001.0001.0001c0 .0001 0 .0001.0494-.0076.0494-.0078.0494-.0077.0494-.0077v.0001.0001.0001s0-.0001 0-.0003c-.0001-.0004-.0002-.0012-.0003-.0023-.0002-.0023-.0005-.006-.0006-.0108-.0003-.0098-.0001-.0241.0024-.0411.0048-.034.0181-.0776.0517-.118zm.4497-.078c-.0017-.05-.0017-.05-.0017-.05-.0001 0-.0001 0-.0001 0-.0001 0-.0001 0-.0002 0-.0002 0-.0005 0-.0009.0001-.0007 0-.0017 0-.003.0001-.0026.0001-.0063.0003-.0111.0005-.0096.0006-.0232.0014-.0397.0028-.0331.0027-.0782.0073-.1263.0152-.0477.0078-.0998.0191-.146.0353-.0447.0158-.0913.0386-.1207.074l.0769.0639c.0116-.0139.0368-.0294.077-.0435.0385-.0136.0842-.0237.129-.031.0446-.0073.0869-.0117.1182-.0143.0155-.0012.0283-.002.0371-.0025.0044-.0003.0078-.0004.01-.0005.0012-.0001.002-.0001.0026-.0001h.0006.0001v-.0001c0 .0001 0 .0001-.0018-.0499zm.9486-.876c-.1281.275-.364.7751-.9529.8262l.0087.0996c.6524-.0566.9093-.6142 1.0349-.8836zm.0268-.0569c-.0084.0174-.0173.0366-.0268.0569l.0907.0422c.0095-.0204.0181-.039.0262-.0558zm-.5256-1.9286c.3058.7534.4692 1.1719.5399 1.4372.0351.132.0462.2224.0418.2952-.0044.0716-.024.1293-.0561.1962l.0901.0433c.0355-.0738.0604-.1445.0658-.2335.0054-.0878-.0085-.1899-.045-.327-.0727-.2728-.239-.6981-.5439-1.449zm-.6043-1.2667c.0066.0017.0247.0111.0563.0544.0304.0416.0678.1067.1159.2044.0961.195.2305.5113.4321 1.0079l.0926-.0376c-.2014-.4962-.3371-.8157-.435-1.0145-.0488-.0992-.0893-.1705-.1248-.2192-.0343-.0469-.0702-.0817-.1126-.0924zm-2.3712-.0128c.6211-.0047 1.1996-.0055 1.6314-.0029.2159.0013.395.0034.5242.0063.0647.0014.1166.0031.1543.0049.0189.0009.0339.0018.0449.0027.0124.001.0167.0019.0164.0018l.0245-.097c-.0088-.0022-.021-.0035-.0325-.0044-.0128-.0011-.0291-.0021-.0486-.003-.0389-.0019-.0918-.0035-.1567-.005-.1301-.0029-.3097-.005-.5259-.0063-.4323-.0026-1.0114-.0018-1.6328.0029zm-2.2588.0172 2.2588-.0172-.0007-.1-2.2589.0172zm-.0885.3384.1351-.3713-.094-.0342-.1351.3713zm-.7876 2.4211c.0254-.1402.124-.4756.2664-.9135.1419-.4364.326-.9711.5212-1.5076l-.094-.0342c-.1955.5375-.3801 1.0732-.5223 1.5109-.1418.4361-.2428.7784-.2697.9266zm.8624 1.2947c-.4181-.055-.6554-.2387-.7784-.4728-.1245-.2371-.1362-.5343-.084-.8219l-.0984-.0178c-.0543.2993-.045.6219.0939.8862.1404.2674.4089.4669.8538.5254zm.429.1181c-.0288-.0217-.072-.0386-.1145-.052-.0442-.0138-.0939-.0257-.1401-.0354-.0463-.0098-.0897-.0174-.1215-.0226-.016-.0026-.029-.0046-.0382-.006-.0045-.0007-.0081-.0012-.0106-.0016-.0012-.0001-.0021-.0003-.0028-.0004-.0003 0-.0006 0-.0007-.0001-.0001 0-.0002 0-.0002 0-.0001 0-.0001 0-.0001 0s0 0-.0068.0495c-.0069.0496-.0069.0496-.0069.0496h.0001.0001c.0001 0 .0003 0 .0006.0001.0006.0001.0015.0002.0026.0003.0023.0004.0056.0009.01.0015.0087.0013.0213.0032.0367.0058.0309.005.0728.0124.1172.0217.0445.0094.0908.0206.1306.0331.0415.013.0703.0258.0842.0363zm.0852.2693c.0492-.0089.0492-.0089.0492-.0089h-.0001c0-.0001 0-.0001 0-.0001 0-.0001 0-.0001 0-.0002s-.0001-.0003-.0001-.0005c-.0001-.0004-.0002-.001-.0003-.0018-.0003-.0014-.0007-.0035-.0013-.0061-.0011-.0052-.0027-.0125-.005-.0214-.0044-.0177-.0113-.0421-.0212-.0688-.0188-.0511-.0517-.1202-.1064-.1615l-.0603.0798c.0306.0231.0554.0687.0729.1162.0083.0226.0142.0435.0181.0587.0019.0076.0032.0137.0041.0178.0004.0021.0007.0036.0009.0046.0001.0005.0002.0008.0002.001.0001.0001.0001.0002.0001.0002s0 0 .0492-.009zm.05.1521v-.1521h-.1v.1521zm-.0931.1596c.0368-.0305.0594-.0676.0728-.096.0068-.0143.0114-.0269.0144-.0361.0015-.0046.0026-.0084.0033-.0113.0004-.0014.0007-.0025.0009-.0034.0001-.0004.0002-.0008.0003-.0011 0-.0002.0001-.0003.0001-.0004s0-.0001 0-.0002c0 0 0 0 0-.0001s0 0-.0487-.011c-.0488-.0109-.0488-.0109-.0488-.011 0-.0001 0-.0001 0-.0001 0-.0001 0-.0001 0-.0001v.0001c0 .0002-.0001.0006-.0003.0013-.0004.0014-.001.0036-.002.0065-.0019.0059-.005.0144-.0096.0243-.0095.02-.0243.0434-.0463.0616zm-.2432-.0075c-.0057.0497-.0057.0497-.0057.0497h.0001.0001c.0001 0 .0003 0 .0005.0001.0004 0 .0009.0001.0016.0001.0013.0002.0032.0004.0056.0006.0047.0004.0114.001.0196.0014.0163.001.0389.0018.0636.0009.0246-.0009.0526-.0035.0793-.0096.026-.006.0552-.0164.0785-.0357l-.0639-.077c-.0061.0051-.0179.0108-.037.0152-.0184.0042-.0396.0064-.0605.0071-.0207.0008-.0399.0002-.0541-.0007-.007-.0004-.0126-.0009-.0165-.0012-.0019-.0002-.0033-.0003-.0042-.0004-.0005-.0001-.0008-.0001-.001-.0001-.0001 0-.0002 0-.0002 0s0 0-.0058.0496zm-2.1559.05h2.1559v-.1h-2.1559zm-2.0853.0237 2.0858-.0237-.0011-.1-2.0858.0238zm-.1788-.0428c.0399.0212.0848.0316.1176.0368.0168.0027.0314.0042.0418.005.0052.0004.0095.0007.0125.0008.0015.0001.0027.0002.0036.0002h.001.0004.0001.0001s0 0 .0012-.05c.0011-.0499.0011-.0499.0012-.0499-.0001 0-.0002 0-.0005-.0001-.0004 0-.0012 0-.0023 0-.0021-.0002-.0053-.0003-.0094-.0007-.0084-.0006-.0202-.0018-.0339-.004-.0281-.0045-.0607-.0127-.0866-.0264zm-.0529-.149c-.0495.0074-.0495.0074-.0495.0075h.0001v.0001.0002c0 .0001 0 .0003.0001.0005 0 .0003.0001.0008.0002.0013.0002.001.0004.0022.0007.0037.0007.003.0016.007.003.0118.0026.0095.0071.0223.0141.0365.0141.0283.0396.0638.0842.0874l.0468-.0883c-.0211-.0112-.0338-.0282-.0414-.0436-.0038-.0077-.0062-.0146-.0075-.0193-.0007-.0024-.0011-.0041-.0013-.0051-.0001-.0004-.0002-.0007-.0002-.0008 0 0 0 0 .0001.0001v.0002.0001.0001.0001s0 0-.0494.0075zm-.05-.1446v.1446h.1v-.1446zm.1197-.2441c-.0637.063-.0944.1222-.1086.1681-.0071.0228-.0099.0419-.0109.056-.0005.0071-.0006.0129-.0005.0172.0001.0022.0002.0041.0003.0055.0001.0008.0001.0014.0002.002 0 .0002 0 .0005.0001.0007v.0003.0002c0 .0001 0 .0001.0497-.0059.0496-.0059.0496-.0059.0496-.0059v.0001s0 .0001.0001.0001v.0002.0004.0003s0-.0003 0-.0009c0-.0012 0-.0036.0002-.0072.0005-.007.0021-.0186.0067-.0335.0092-.0297.031-.0748.0834-.1266zm.4648-.1099c-.0049-.0498-.0049-.0498-.0049-.0498h-.0001c-.0001.0001-.0001.0001-.0002.0001-.0002 0-.0005 0-.0008.0001-.0007 0-.0017.0001-.003.0003-.0025.0002-.0061.0006-.0107.0012-.0092.0011-.0224.0028-.0385.0052-.0322.0049-.0764.0125-.1246.024-.048.0113-.1009.0267-.1499.0471-.0485.0201-.0965.0466-.1321.0817l.0703.0711c.0225-.0222.0572-.0426.1002-.0605.0424-.0176.0897-.0315.1346-.0421.0447-.0106.0861-.0178.1163-.0224.0151-.0022.0273-.0038.0357-.0048.0042-.0005.0074-.0009.0096-.0011.001-.0001.0018-.0002.0023-.0003h.0006.0001s0 0-.0049-.0498zm1.0348-1.0714c-.0931.1751-.2181.4095-.3893.6117-.1712.202-.3847.3671-.6534.4103l.0159.0988c.3014-.0486.5345-.2328.7138-.4445.1792-.2115.3086-.4551.4013-.6293zm.0392-.0731c-.0124.0228-.0255.0474-.0392.0731l.0883.047c.0138-.0258.0266-.05.0388-.0725zm.7358-1.7582c-.1661.4167-.3322.8233-.4659 1.1426-.1343.3209-.2346.5503-.2699.6156l.0879.0476c.0383-.0708.141-.3061.2743-.6245.1339-.32.3002-.7271.4665-1.1442zm.8291-2.07318c-.1236.30642-.4967 1.23938-.8291 2.07318l.0929.0371c.3324-.8339.7054-1.76667.8289-2.07287zm1.4236-3.55795c-.6044 1.51877-1.0036 2.51653-1.4236 3.55795l.0927.03741c.4201-1.04162.8194-2.03953 1.4238-3.55839zm1.0917-2.73526c-.2686.67053-.7599 1.90138-1.0917 2.73526l.0929.03697c.3318-.83382.8231-2.0646 1.0916-2.73504zm.4883-1.2191-.4883 1.2191.0928.03719.4883-1.2191zm.7016-.37609-.6782.35026.0459.08885.6781-.35026zm.2471 3.87039c-.091-.221-.251-.61759-.3556-.8811l-.0929.03688c.1046.26384.2649.66083.356.88228zm.5664 1.39259c-.2203-.54455-.4753-1.17122-.5664-1.3926l-.0925.03808c.091.22106.3459.84748.5662 1.39204zm.6017 1.47217c-.1106-.26516-.3813-.92764-.6017-1.47217l-.0927.03752c.2204.54458.4913 1.20746.6021 1.47312zm.205.52976c0-.00852-.0023-.01651-.0028-.01822-.001-.00384-.0023-.0082-.0038-.01271-.003-.00914-.0072-.02107-.0124-.03521-.0104-.02838-.0253-.06725-.0436-.11366-.0366-.0929-.087-.217-.1424-.34996l-.0924.03847c.0553.13252.1054.256.1417.34815.0182.04612.0328.08415.0428.11145.0051.01371.0088.02431.0112.03171.0012.00375.0019.00617.0023.0075.0009.00347-.0006-.00092-.0006-.00752zm-1.8948.07797c.5074 0 .9689-.00314 1.3036-.00821.1673-.00254.3032-.00556.3974-.00892.047-.00168.0841-.00346.1098-.00535.0126-.00093.0235-.00196.0317-.00318.0038-.00056.009-.00144.0141-.00295.0021-.00064.0074-.00227.0131-.00566.0017-.001.0251-.01415.0251-.0437h-.1c0-.02907.0229-.04174.0238-.04227.0049-.00291.0089-.00406.0095-.00423.0019-.00055.0023-.00049-.0003-.00011-.0044.00066-.0123.00148-.0244.00237-.0237.00175-.0593.00347-.106.00514-.0932.00333-.2282.00634-.3953.00887-.3341.00506-.795.0082-1.3021.0082zm-1.8948-.11065c0 .02129.012.035.0189.04105.007.00616.0144.00979.0192.01186.01.00432.0219.00733.0333.00968.0237.00485.057.00906.0985.01284.0834.00762.206.01404.364.01923.3164.01041.7783.01599 1.3609.01599v-.1c-.5822 0-1.0428-.00558-1.3576-.01593-.1575-.00518-.2778-.01153-.3582-.01888-.0406-.0037-.0694-.00752-.0875-.01122-.0044-.0009-.0078-.00172-.0103-.00242-.0026-.00073-.0036-.00116-.0035-.00113 0 .00004.0007.00034.0018.00098.0011.00061.0031.00187.0055.00399.0042.00371.015.01506.015.03396zm.0898-.31133c-.0242.06513-.0462.13137-.0623.18584-.008.0272-.0147.0519-.0194.0723-.0044.01883-.0081.03847-.0081.05319h.1c0 .00019 0-.00044.0001-.00216.0002-.00164.0005-.00385.001-.00667.0009-.00568.0024-.01298.0044-.02188.0041-.01778.0102-.04041.0179-.06648.0154-.05207.0367-.11612.0601-.17932zm1.29-3.69233c-.8361 2.40635-1.2144 3.48889-1.29 3.69231l.0937.03485c.0762-.20475.455-1.28893 1.2908-3.69433zm.2703-.73721c-.0043.00728-.0094.01909-.0143.03072-.0054.01302-.0121.03009-.02.05056-.0159.04099-.0366.09659-.0607.1627-.0484.13227-.1107.30731-.1753.49323l.0945.03283c.0645-.18555.1266-.36008.1747-.49175.0241-.06586.0445-.12082.0601-.16102.0077-.02013.0141-.03631.0191-.0482.0055-.01328.0079-.01805.0079-.01801zm.4108.49793c-.0946-.2386-.1621-.39114-.2146-.47134-.0134-.02045-.027-.0381-.0412-.05176-.0138-.01332-.0315-.026-.0531-.0307-.024-.00521-.0464.00076-.0645.01327-.0163.01133-.0283.0273-.0374.04259l.086.05108c.0056-.00948.0087-.01173.0083-.01145-.0021.00146-.0076.00354-.0136.00224-.0037-.00079-.0021-.00176.005.00503.0067.00647.0157.01735.0269.03448.0459.0701.1097.21252.2053.45343z" fill-rule="nonzero" mask="url(#a)"/></g><g fill-rule="nonzero" transform="translate(1 .5)"><path d="m12.3078 13.7367c.6065 1.0726-.75 1.4051-1.3866 1.4663-.9646.0942-1.1643-.4643-.9759-1.1659.0619-.2512.1991-.4772.3931-.6473.1941-.1702.4355-.2763.6916-.3039.2523-.0232.5061.0255.7321.1406.226.1152.4152.292.5457.5102z"/><path d="m16.094 11.7521c-.705 5.4169 8.7991 4.2897 8.6182 8.601.9375-1.2243 1.3406-4.5505-1.4193-6.2626-2.459-1.5266-5.6633-.6913-7.1989-2.3384z"/><path d="m21.5684 9.7093c-.0619-.05744-.1257-.11395-.1875-.17045.0628.05744.1256.11772.1875.17045z"/><path d="m23.7771 13.6581-.0056-.0085c-.0858-.1601-.1836-.3134-.2925-.4586-.3204-.4361-.78-.7486-1.3021-.8853-.3476-.0901-.703-.1462-1.0613-.1676-.3628-.0264-.7331-.0415-1.1071-.0612-.75-.0415-1.5178-.1187-2.2678-.3334-.1875-.0537-.3749-.1121-.5559-.1827-.0937-.0339-.1809-.0706-.2737-.1102-.0928-.0395-.1875-.0848-.2813-.1328-.3526-.194-.6793-.4323-.9721-.7091-.5775-.5396-1.0312-1.15178-1.4859-1.74508-.4286-.59558-.8887-1.16772-1.3781-1.71398-.4829-.53513-1.0537-.983-1.6874-1.32409-.6563-.33204-1.3691-.53653-2.1009-.60272.7592-.08281 1.5272.01129 2.2443.27499.7236.2822 1.3851.70422 1.9471 1.24217.3669.34566.7114.71464 1.0312 1.10466 2.3812-.47087 4.3124-.05273 5.7964.75905l.0338.01695c.4723.25736.915.56624 1.3199.92103.0647.05651.1285.11301.1875.17046.3161.29176.6103.60656.8803.94176l.0206.0273c.8766 1.115 1.3097 2.2743 1.3106 2.9769z"/><path d="m23.776 13.657-.0055-.0112z"/><path d="m9.1263 5.92056c.6075.08853 1.2272.3315 1.6265.79484.3994.46334.5466 1.06606.6619 1.63958.0937.44451.1678.89749.3422 1.31845.0843.2053.2081.38517.3112.57917.0853.161.2409.3061.3009.4784.0108.0248.0148.0519.0116.0787-.0031.0268-.0132.0523-.0294.0739-.2118.2354-.7837-.0264-.9993-.1319-.3728-.1856-.7066-.4413-.9834-.75336-.8653-.9653-1.3125-2.35438-1.2853-3.61915.006-.15355.0204-.30666.0431-.45863z"/><path d="m19.2865 16.8057c-1.3125 3.6794 4.6405 6.1478 2.4102 9.8884 2.2884-.9493 3.3749-3.8169 2.4253-6.0922-.8306-1.9974-3.2868-2.7254-4.8355-3.7962z"/><path d="m11.4131 21.6174c.3576-.2708.7487-.494 1.1634-.6639.4195-.1687.8548-.2949 1.2993-.3767.8822-.1686 1.755-.21 2.4881-.5067.3622-.1421.6955-.3495.9834-.6121.2787-.2601.492-.5829.6225-.9418.1336-.3787.1879-.7811.1593-1.1819-.0331-.4305-.1301-.8536-.2878-1.2553.3268.3414.5648.7585.6928 1.2143.128.4559.1422.9364.0413 1.399-.1147.4898-.3623.938-.7153 1.2949-.3494.3458-.7708.6095-1.2337.7723-.4418.1556-.9026.2507-1.3697.2825-.45.0377-.885.048-1.3124.0734-.8643.0365-1.718.2057-2.5312.502z"/><path d="m19.8102 28.0852c-.1322.1055-.2644.2176-.4097.3155-.1462.0968-.2995.1824-.4584.2562-.331.1622-.6949.245-1.0631.242-.9975-.0188-1.7025-.7647-2.1149-1.6076-.2813-.5744-.4753-1.1951-.8091-1.7422-.4772-.7826-1.2937-1.4126-2.2499-1.2959-.39.049-.7556.2251-.9722.5651-.57.8881.2485 2.1321 1.2919 1.956.0887-.0136.1755-.0376.2587-.0716.0829-.0354.1602-.0827.2297-.1403.1457-.1219.2556-.2814.3178-.4614.0685-.1877.0838-.3909.044-.5868-.0428-.2047-.1631-.3847-.3356-.5019.2006.0943.3568.2631.436.4709.082.2137.1031.4463.0609.6714-.041.2346-.1439.4539-.2981.6348-.0819.093-.1766.1739-.2813.2401-.1037.0655-.2148.1183-.3309.1573-.2355.0809-.4861.1069-.7331.0763-.3468-.0496-.6738-.1921-.9468-.4125-.3225-.2562-.5625-.5914-.8541-.8796-.3342-.3523-.7285-.6416-1.1643-.8542-.3005-.1326-.615-.2305-.9375-.2919-.1622-.0339-.3262-.0584-.49029-.0791-.075-.0075-.44249-.0895-.49405-.0415.50704-.4689 1.05984-.8853 1.64994-1.2431.6059-.3612 1.2565-.6407 1.935-.8315.7034-.1989 1.4392-.2556 2.1646-.1667.3734.045.7391.1401 1.0874.2825.365.1465.7019.3555.9956.6178.2908.2751.5257.6042.6919.9691.15.3415.262.6987.3337 1.0651.2138 1.0952.135 2.7932 1.5628 3.0437.0744.0145.1495.0252.225.032l.2334.0057c.1605-.0115.32-.0345.4772-.0688.3257-.0769.6432-.1858.9478-.3249z"/><path d="m11.514 26.8916-.0374-.0294z"/><path d="m10.2325 11.4336c-.052.2007-.1428.3892-.2672.5547-.2315.3019-.538.5373-.8887.6828-.3154.1365-.6494.2247-.9909.2618-.0741.0094-.15092.015-.22498.0207-.21628.0082-.42424.0858-.59344.2214s-.29075.322-.34685.532c-.02569.1045-.04479.2105-.05719.3174-.03375.2768-.03937.565-.06937.9134-.07346.593-.2442 1.1696-.5053 1.7065-.33936.7176-.71997 1.2958-.63185 2.1227.05812.5368.33186.8965.6956 1.2676.65623.6743 2.12528.9756 1.79718 2.6369-.19785.9916-1.83468 2.0323-4.13524 2.3958.22875-.0349-.29343-.9192-.32624-.9757-.24655-.388-.51654-.7534-.71247-1.1743-.38437-.8165-.56249-1.7611-.40499-2.6558.16593-.9417.85966-1.6631 1.43621-2.3826.68623-.856 1.4062-1.9776 1.56557-3.0889.0375-.2693.06375-.6065.12375-.9418.0572-.3714.17303-.7313.34311-1.066.1161-.2196.26895-.4174.45186-.5848.09537-.0889.15829-.2074.17869-.3365.02039-.1291-.00291-.2613-.06619-.3755l-3.66739-6.62614 5.26763 6.53004c.06.0757.1358.1372.2221.1801s.181.0663.2772.0683c.0963.0021.1918-.0171.2799-.0563.088-.0392.1664-.0974.2296-.1704.0667-.0782.1045-.1771.1071-.28.0025-.1029-.0303-.2036-.0931-.285-.344-.4417-.7078-.89188-1.0603-1.3345l-1.32555-1.64806-2.66055-3.29047-3.62795-4.57297 3.96919 4.27821 2.8321 3.14543 1.41276 1.57649c.4687.53021.9375 1.04347 1.4062 1.60097l.0769.0942.0169.1459c.0228.198.0114149.3984-.0338.5924z"/><path d="m11.447 26.8463c-.2545-.1975-.481-.4292-.6731-.6884.2061.2468.4311.477.6731.6884z"/></g></g></svg>